<svg width="111" height="39" viewBox="0 0 111 39" fill="none" xmlns="http://www.w3.org/2000/svg">
<g clip-path="url(#clip0_1_1625)">
<g clip-path="url(#clip1_1_1625)">
<path d="M101.06 1.55005H9.53998L8.70998 1.56005C8.10998 1.57005 7.50998 1.62005 6.90998 1.72005C5.7071 1.91452 4.59602 2.48288 3.73442 3.34449C2.87281 4.20609 2.30445 5.31717 2.10998 6.52005C2.00998 7.12005 1.95998 7.72005 1.94998 8.32005L1.93998 9.15005V29.95L1.94998 30.78C1.95998 31.38 2.00998 31.98 2.10998 32.58C2.31843 33.7778 2.88703 34.8837 3.73998 35.75C4.15998 36.18 4.64998 36.54 5.18998 36.81C5.7282 37.0846 6.30464 37.2768 6.89998 37.3801C7.49998 37.4801 8.09998 37.5301 8.69998 37.5401H102.87C103.47 37.5301 104.07 37.4801 104.67 37.3801C105.265 37.2755 105.841 37.0834 106.38 36.81C106.92 36.5372 107.413 36.1793 107.84 35.75C108.267 35.3252 108.625 34.8359 108.9 34.3C109.18 33.76 109.36 33.18 109.46 32.58C109.56 31.98 109.62 31.38 109.63 30.78V8.32005C109.618 7.71666 109.561 7.115 109.46 6.52005C109.361 5.92499 109.172 5.34842 108.9 4.81005C108.344 3.7272 107.463 2.84587 106.38 2.29005C105.841 2.01628 105.265 1.82418 104.67 1.72005C104.075 1.62055 103.473 1.56706 102.87 1.56005H102.04L101.06 1.55005Z" fill="#A6A6A6"/>
<path d="M9.53998 36.7601H8.72998C8.16371 36.7521 7.59882 36.7019 7.03998 36.6101C6.52122 36.5184 6.01904 36.3499 5.54998 36.1101C5.08751 35.8753 4.66553 35.5681 4.29998 35.2001C3.92652 34.8332 3.61573 34.4075 3.37998 33.9401C3.14153 33.4714 2.97628 32.9689 2.88998 32.4501C2.79721 31.8914 2.74706 31.3264 2.73998 30.7601L2.72998 29.9401V9.15009L2.73998 8.35009C2.73998 7.78009 2.79998 7.22009 2.88998 6.66009C2.97575 6.138 3.141 5.63213 3.37998 5.16009C3.73798 4.4602 4.25597 3.85459 4.89189 3.39241C5.52781 2.93024 6.26376 2.62453 7.03998 2.50009C7.59998 2.40009 8.15998 2.35009 8.73998 2.35009L9.53998 2.34009H102.85C103.41 2.36009 103.97 2.41009 104.53 2.50009C105.05 2.59009 105.56 2.75009 106.03 2.99009C106.963 3.47234 107.722 4.23466 108.2 5.17009C108.44 5.63009 108.6 6.13009 108.69 6.65009C108.83 7.47563 108.88 8.31379 108.84 9.15009L108.85 10.1301V29.9501L108.84 30.7801C108.83 31.3401 108.78 31.9001 108.69 32.4501C108.604 32.9722 108.439 33.4781 108.2 33.9501C107.964 34.412 107.657 34.8339 107.29 35.2001C106.922 35.5725 106.497 35.8831 106.03 36.1201C105.55 36.3601 105.05 36.5201 104.53 36.6201C103.97 36.7101 103.41 36.7601 102.84 36.7601L102.04 36.7701H9.53998V36.7601Z" fill="black"/>
<path d="M40.01 25.98H35.75L34.73 29H32.93L36.96 17.82H38.83L42.87 29H41.03L40.01 25.98ZM36.19 24.58H39.57L37.9 19.68H37.86L36.19 24.58ZM51.59 24.92C51.59 27.45 50.23 29.08 48.19 29.08C47.6714 29.1091 47.1551 28.9913 46.7005 28.7401C46.2459 28.4889 45.8713 28.1146 45.62 27.66H45.58V31.69H43.91V20.85H45.53V22.2H45.56C45.8223 21.747 46.2028 21.3738 46.6607 21.1202C47.1186 20.8665 47.6368 20.7421 48.16 20.76C50.22 20.76 51.58 22.4 51.58 24.92H51.59ZM49.87 24.92C49.87 23.27 49.01 22.19 47.71 22.19C46.43 22.19 45.57 23.29 45.57 24.92C45.57 26.56 46.43 27.66 47.71 27.66C49.01 27.66 49.86 26.59 49.86 24.92H49.87ZM60.55 24.92C60.55 27.45 59.2 29.08 57.15 29.08C56.633 29.1072 56.1189 28.9885 55.6662 28.7374C55.2135 28.4863 54.8406 28.113 54.59 27.66H54.55V31.69H52.88V20.85H54.5V22.2H54.53C54.7923 21.747 55.1728 21.3738 55.6307 21.1202C56.0886 20.8665 56.6068 20.7421 57.13 20.76C59.19 20.76 60.55 22.4 60.55 24.92ZM58.83 24.92C58.83 23.27 57.98 22.19 56.68 22.19C55.4 22.19 54.54 23.29 54.54 24.92C54.54 26.56 55.4 27.66 56.68 27.66C57.98 27.66 58.83 26.59 58.83 24.92ZM66.48 25.88C66.6 26.99 67.68 27.72 69.15 27.72C70.56 27.72 71.58 26.99 71.58 25.99C71.58 25.12 70.96 24.6 69.52 24.25L68.07 23.9C66.01 23.4 65.07 22.44 65.07 20.89C65.07 18.96 66.74 17.63 69.13 17.63C71.49 17.63 73.11 18.96 73.16 20.89H71.48C71.38 19.77 70.45 19.09 69.1 19.09C67.76 19.09 66.83 19.78 66.83 20.77C66.83 21.57 67.43 22.03 68.86 22.38L70.1 22.68C72.39 23.23 73.34 24.15 73.34 25.78C73.34 27.88 71.68 29.18 69.03 29.18C66.55 29.18 64.87 27.9 64.77 25.88H66.48ZM76.94 18.92V20.85H78.49V22.17H76.94V26.67C76.94 27.37 77.25 27.69 77.94 27.69C78.12 27.69 78.3 27.67 78.48 27.65V28.97C78.1732 29.0248 77.8616 29.0482 77.55 29.04C75.9 29.04 75.26 28.42 75.26 26.84V22.17H74.08V20.85H75.26V18.92H76.94ZM79.39 24.92C79.39 22.36 80.89 20.75 83.25 20.75C85.62 20.75 87.12 22.35 87.12 24.92C87.12 27.49 85.62 29.1 83.25 29.1C80.88 29.1 79.39 27.5 79.39 24.92ZM85.41 24.92C85.41 23.16 84.61 22.12 83.25 22.12C81.89 22.12 81.09 23.17 81.09 24.92C81.09 26.69 81.89 27.72 83.25 27.72C84.61 27.72 85.41 26.69 85.41 24.92ZM88.5 20.85H90.1V22.24H90.13C90.2358 21.8051 90.4887 21.4201 90.846 21.1504C91.2032 20.8806 91.6427 20.7427 92.09 20.76C92.29 20.76 92.48 20.78 92.66 20.83V22.39C92.4171 22.3162 92.1638 22.2824 91.91 22.29C91.6679 22.2815 91.4268 22.325 91.203 22.4178C90.9792 22.5106 90.778 22.6504 90.613 22.8277C90.448 23.0051 90.323 23.2158 90.2466 23.4457C90.1702 23.6756 90.144 23.9192 90.17 24.16V29H88.5V20.85ZM100.38 26.6C100.15 28.08 98.71 29.1 96.87 29.1C94.5 29.1 93.03 27.5 93.03 24.96C93.03 22.41 94.51 20.75 96.8 20.75C99.05 20.75 100.47 22.3 100.47 24.77V25.34H94.71V25.44C94.6842 25.74 94.7225 26.0421 94.8226 26.3261C94.9226 26.6102 95.082 26.8696 95.2902 27.0872C95.4983 27.3048 95.7504 27.4756 96.0297 27.5882C96.309 27.7007 96.6091 27.7525 96.91 27.74C97.3043 27.7777 97.7003 27.6871 98.039 27.4817C98.3777 27.2763 98.6411 26.9671 98.79 26.6H100.38ZM94.72 24.17H98.8C98.8152 23.9001 98.7745 23.63 98.6803 23.3766C98.5861 23.1232 98.4405 22.8921 98.2527 22.6976C98.0648 22.5032 97.8388 22.3498 97.5888 22.2469C97.3388 22.1441 97.0702 22.0941 96.8 22.1C96.5269 22.0974 96.2561 22.149 96.0032 22.252C95.7503 22.3549 95.5204 22.5072 95.3268 22.6998C95.1333 22.8924 94.98 23.1216 94.8758 23.374C94.7716 23.6264 94.7186 23.897 94.72 24.17ZM35.98 9.41001C36.3308 9.38511 36.6829 9.4383 37.0107 9.56574C37.3386 9.69318 37.6341 9.8917 37.8761 10.147C38.118 10.4024 38.3003 10.7081 38.4099 11.0424C38.5196 11.3766 38.5537 11.731 38.51 12.08C38.51 13.79 37.58 14.78 35.98 14.78H34.04V9.41001H35.98ZM34.88 14.01H35.89C36.1393 14.0242 36.3886 13.983 36.6201 13.8893C36.8516 13.7956 37.0594 13.6518 37.2286 13.4682C37.3979 13.2846 37.5244 13.0658 37.5989 12.8275C37.6735 12.5892 37.6944 12.3373 37.66 12.09C37.6925 11.843 37.6704 11.5919 37.5951 11.3544C37.5199 11.1169 37.3933 10.8988 37.2245 10.7156C37.0556 10.5325 36.8485 10.3886 36.6179 10.2944C36.3873 10.2001 36.1388 10.1576 35.89 10.17H34.88V14.02V14.01ZM39.45 12.75C39.4309 12.4869 39.4664 12.2227 39.554 11.9739C39.6416 11.725 39.7795 11.4969 39.9592 11.3038C40.1389 11.1106 40.3565 10.9566 40.5983 10.8512C40.8402 10.7459 41.1012 10.6915 41.365 10.6915C41.6288 10.6915 41.8898 10.7459 42.1316 10.8512C42.3735 10.9566 42.591 11.1106 42.7707 11.3038C42.9504 11.4969 43.0884 11.725 43.176 11.9739C43.2636 12.2227 43.299 12.4869 43.28 12.75C43.299 13.0131 43.2636 13.2773 43.176 13.5262C43.0884 13.775 42.9504 14.0031 42.7707 14.1963C42.591 14.3894 42.3735 14.5435 42.1316 14.6488C41.8898 14.7541 41.6288 14.8085 41.365 14.8085C41.1012 14.8085 40.8402 14.7541 40.5983 14.6488C40.3565 14.5435 40.1389 14.3894 39.9592 14.1963C39.7795 14.0031 39.6416 13.775 39.554 13.5262C39.4664 13.2773 39.4309 13.0131 39.45 12.75ZM42.45 12.75C42.45 11.87 42.05 11.35 41.37 11.35C40.67 11.35 40.27 11.87 40.27 12.75C40.27 13.64 40.67 14.15 41.37 14.15C42.06 14.15 42.45 13.63 42.45 12.75ZM48.35 14.78H47.53L46.69 11.79H46.63L45.79 14.78H44.97L43.85 10.73H44.66L45.39 13.82H45.45L46.28 10.72H47.05L47.88 13.82H47.95L48.67 10.72H49.47L48.35 14.78ZM50.41 10.73H51.18V11.37H51.24C51.3408 11.1405 51.5104 10.9479 51.7253 10.8189C51.9403 10.69 52.19 10.6309 52.44 10.65C52.637 10.6346 52.8349 10.6636 53.0191 10.7349C53.2034 10.8062 53.3693 10.918 53.5047 11.0619C53.64 11.2059 53.7413 11.3784 53.801 11.5667C53.8608 11.755 53.8775 11.9544 53.85 12.15V14.78H53.05V12.35C53.05 11.69 52.77 11.37 52.18 11.37C52.0456 11.3634 51.9115 11.3861 51.7867 11.4364C51.662 11.4866 51.5496 11.5634 51.4574 11.6613C51.3652 11.7592 51.2953 11.876 51.2526 12.0035C51.2099 12.131 51.1954 12.2663 51.21 12.4V14.77H50.41V10.73ZM55.12 9.14001H55.92V14.78H55.12V9.14001ZM57.04 12.75C57.0126 12.4828 57.0416 12.2128 57.1251 11.9574C57.2086 11.7021 57.3448 11.4671 57.5248 11.2677C57.7048 11.0683 57.9247 10.9089 58.1702 10.7998C58.4157 10.6907 58.6813 10.6343 58.95 10.6343C59.2186 10.6343 59.4843 10.6907 59.7298 10.7998C59.9753 10.9089 60.1951 11.0683 60.3751 11.2677C60.5552 11.4671 60.6913 11.7021 60.7748 11.9574C60.8584 12.2128 60.8874 12.4828 60.86 12.75C60.8874 13.0173 60.8584 13.2873 60.7748 13.5426C60.6913 13.7979 60.5552 14.0329 60.3751 14.2323C60.1951 14.4317 59.9753 14.5911 59.7298 14.7002C59.4843 14.8093 59.2186 14.8657 58.95 14.8657C58.6813 14.8657 58.4157 14.8093 58.1702 14.7002C57.9247 14.5911 57.7048 14.4317 57.5248 14.2323C57.3448 14.0329 57.2086 13.7979 57.1251 13.5426C57.0416 13.2873 57.0126 13.0173 57.04 12.75ZM60.04 12.75C60.04 11.87 59.64 11.35 58.94 11.35C58.25 11.35 57.86 11.87 57.86 12.75C57.86 13.64 58.26 14.15 58.95 14.15C59.65 14.15 60.04 13.63 60.04 12.75ZM61.7 13.63C61.7 12.9 62.24 12.48 63.2 12.43L64.3 12.36V12.01C64.3 11.58 64.02 11.34 63.48 11.34C63.03 11.34 62.72 11.5 62.63 11.79H61.86C61.94 11.09 62.59 10.65 63.51 10.65C64.53 10.65 65.11 11.15 65.11 12.01V14.78H64.33V14.21H64.27C64.142 14.4157 63.9615 14.5834 63.747 14.6959C63.5325 14.8084 63.2919 14.8616 63.05 14.85C62.8792 14.8683 62.7065 14.8504 62.5431 14.7973C62.3797 14.7442 62.2294 14.6573 62.102 14.5421C61.9745 14.4269 61.8729 14.2862 61.8036 14.129C61.7343 13.9718 61.699 13.8018 61.7 13.63ZM64.3 13.29V12.95L63.32 13.01C62.76 13.05 62.51 13.24 62.51 13.6C62.51 13.96 62.82 14.17 63.26 14.17C63.3872 14.1838 63.5158 14.1717 63.6383 14.1345C63.7607 14.0973 63.8743 14.0358 63.9724 13.9536C64.0704 13.8714 64.1509 13.7703 64.2089 13.6563C64.2669 13.5422 64.3013 13.4177 64.31 13.29H64.3ZM66.15 12.75C66.15 11.47 66.81 10.65 67.84 10.65C68.0936 10.6403 68.3449 10.7027 68.5644 10.8302C68.7839 10.9577 68.9627 11.1449 69.08 11.37H69.14V9.14001H69.94V14.78H69.17V14.14H69.11C68.9824 14.3615 68.7966 14.5439 68.5727 14.6673C68.3488 14.7907 68.0954 14.8504 67.84 14.84C66.81 14.84 66.15 14.04 66.15 12.75ZM66.98 12.75C66.98 13.61 67.38 14.13 68.06 14.13C68.74 14.13 69.16 13.6 69.16 12.75C69.16 11.91 68.73 11.38 68.06 11.38C67.39 11.38 66.98 11.9 66.98 12.75ZM73.25 12.75C73.2226 12.4828 73.2516 12.2128 73.3351 11.9574C73.4186 11.7021 73.5548 11.4671 73.7348 11.2677C73.9148 11.0683 74.1347 10.9089 74.3802 10.7998C74.6257 10.6907 74.8913 10.6343 75.16 10.6343C75.4286 10.6343 75.6943 10.6907 75.9398 10.7998C76.1853 10.9089 76.4051 11.0683 76.5851 11.2677C76.7652 11.4671 76.9013 11.7021 76.9848 11.9574C77.0684 12.2128 77.0974 12.4828 77.07 12.75C77.0974 13.0173 77.0684 13.2873 76.9848 13.5426C76.9013 13.7979 76.7652 14.0329 76.5851 14.2323C76.4051 14.4317 76.1853 14.5911 75.9398 14.7002C75.6943 14.8093 75.4286 14.8657 75.16 14.8657C74.8913 14.8657 74.6257 14.8093 74.3802 14.7002C74.1347 14.5911 73.9148 14.4317 73.7348 14.2323C73.5548 14.0329 73.4186 13.7979 73.3351 13.5426C73.2516 13.2873 73.2226 13.0173 73.25 12.75ZM76.25 12.75C76.25 11.87 75.85 11.35 75.15 11.35C74.46 11.35 74.07 11.87 74.07 12.75C74.07 13.64 74.47 14.15 75.16 14.15C75.86 14.15 76.25 13.63 76.25 12.75ZM78.15 10.73H78.91V11.37H78.97C79.0713 11.1388 79.2425 10.945 79.4595 10.8159C79.6765 10.6868 79.9284 10.6288 80.18 10.65C80.3762 10.6362 80.5729 10.6664 80.756 10.7384C80.939 10.8104 81.1036 10.9223 81.2378 11.0661C81.3719 11.2099 81.4723 11.3818 81.5315 11.5693C81.5907 11.7569 81.6073 11.9553 81.58 12.15V14.78H80.78V12.35C80.78 11.69 80.5 11.37 79.91 11.37C79.7756 11.3634 79.6415 11.3861 79.5167 11.4364C79.392 11.4866 79.2796 11.5634 79.1874 11.6613C79.0952 11.7592 79.0253 11.876 78.9826 12.0035C78.9399 12.131 78.9254 12.2663 78.94 12.4V14.77H78.14V10.73H78.15ZM86.1 9.72001V10.74H86.98V11.42H86.1V13.5C86.1 13.93 86.28 14.11 86.68 14.11C86.78 14.11 86.88 14.11 86.98 14.09V14.76C86.84 14.79 86.69 14.8 86.55 14.8C85.65 14.8 85.3 14.49 85.3 13.7V11.43H84.66V10.75H85.3V9.72001H86.1ZM88.07 9.14001H88.87V11.38H88.93C89.0363 11.1454 89.2125 10.9494 89.4344 10.8187C89.6564 10.688 89.9133 10.6291 90.17 10.65C90.3667 10.6378 90.5636 10.6694 90.7465 10.7426C90.9295 10.8158 91.0939 10.9287 91.2279 11.0732C91.3618 11.2177 91.462 11.3902 91.5212 11.5781C91.5804 11.7661 91.597 11.9648 91.57 12.16V14.78H90.77V12.35C90.77 11.7 90.46 11.37 89.89 11.37C89.7524 11.3593 89.6142 11.3787 89.4849 11.4268C89.3557 11.475 89.2384 11.5507 89.1413 11.6487C89.0443 11.7467 88.9697 11.8647 88.9229 11.9944C88.876 12.1242 88.8579 12.2626 88.87 12.4V14.77H88.07V9.14001ZM96.23 13.68C96.1218 14.052 95.8862 14.3741 95.5644 14.5899C95.2426 14.8056 94.8552 14.9012 94.47 14.86C94.2023 14.8671 93.9363 14.8156 93.6906 14.7093C93.4449 14.603 93.2253 14.4443 93.0473 14.2443C92.8692 14.0443 92.7369 13.8079 92.6597 13.5516C92.5824 13.2952 92.5621 13.0251 92.6 12.76C92.5657 12.4951 92.5886 12.2259 92.667 11.9705C92.7455 11.7152 92.8778 11.4796 93.055 11.2796C93.2322 11.0797 93.4502 10.9201 93.6943 10.8115C93.9383 10.7029 94.2028 10.6478 94.47 10.65C95.59 10.65 96.27 11.42 96.27 12.69V12.97H93.41V13.01C93.3974 13.1588 93.4161 13.3085 93.4649 13.4496C93.5136 13.5906 93.5913 13.72 93.6931 13.8292C93.7948 13.9385 93.9182 14.0252 94.0555 14.0839C94.1927 14.1426 94.3407 14.1719 94.49 14.17C94.6805 14.1924 94.8734 14.1578 95.0443 14.0706C95.2152 13.9834 95.3564 13.8475 95.45 13.68H96.22H96.23ZM93.41 12.38H95.46C95.4698 12.2439 95.451 12.1071 95.4049 11.9787C95.3588 11.8502 95.2863 11.7327 95.1922 11.6339C95.098 11.535 94.9842 11.4569 94.8582 11.4046C94.7321 11.3523 94.5965 11.3269 94.46 11.33C94.3217 11.3287 94.1846 11.3549 94.0566 11.4072C93.9286 11.4595 93.8123 11.5368 93.7145 11.6346C93.6168 11.7323 93.5395 11.8486 93.4872 11.9766C93.4349 12.1046 93.4086 12.2418 93.41 12.38ZM24.24 19.82C24.2487 19.0683 24.4477 18.331 24.8184 17.677C25.1891 17.023 25.7195 16.4736 26.36 16.08C25.9534 15.5 25.4172 15.0228 24.7941 14.686C24.171 14.3493 23.4779 14.1623 22.77 14.14C21.26 13.98 19.79 15.04 19.02 15.04C18.24 15.04 17.05 14.16 15.78 14.18C14.95 14.2054 14.141 14.4465 13.4326 14.8796C12.7242 15.3127 12.1409 15.9229 11.74 16.65C9.99998 19.66 11.3 24.09 12.96 26.53C13.8 27.72 14.77 29.05 16.05 29.01C17.3 28.95 17.76 28.21 19.27 28.21C20.77 28.21 21.2 29.01 22.5 28.98C23.84 28.95 24.69 27.78 25.5 26.58C26.0978 25.7276 26.5568 24.786 26.86 23.79C26.0808 23.4616 25.4158 22.9108 24.948 22.2065C24.4802 21.5022 24.2305 20.6755 24.23 19.83L24.24 19.82ZM21.78 12.54C22.5094 11.6634 22.8681 10.5369 22.78 9.40001C21.6656 9.52036 20.6374 10.0559 19.9 10.9C19.1698 11.7303 18.7994 12.8166 18.87 13.92C19.4278 13.9249 19.9795 13.8033 20.4835 13.5642C20.9875 13.3252 21.4308 12.975 21.78 12.54Z" fill="white"/>
</g>
</g>
<defs>
<clipPath id="clip0_1_1625">
<rect width="110" height="38" fill="white" transform="translate(0.93998 0.550049)"/>
</clipPath>
<clipPath id="clip1_1_1625">
<rect width="176" height="811" fill="white" transform="translate(0.93998 -628.45)"/>
</clipPath>
</defs>
</svg>
