<svg width="23" height="23" viewBox="0 0 23 23" fill="none" xmlns="http://www.w3.org/2000/svg">
<g clip-path="url(#clip0_1_592)">
<g clip-path="url(#clip1_1_592)">
<path d="M8.59497 14.26C11.635 14.26 14.095 11.8 14.095 8.76001C14.095 5.72001 11.635 3.26001 8.59497 3.26001C5.55497 3.26001 3.09497 5.72001 3.09497 8.76001C3.09497 11.8 5.55497 14.26 8.59497 14.26ZM13.145 14.72C11.8406 15.7228 10.2403 16.2645 8.59497 16.26C4.45497 16.26 1.09497 12.9 1.09497 8.76001C1.09497 4.62001 4.45497 1.26001 8.59497 1.26001C12.735 1.26001 16.095 4.62001 16.095 8.76001C16.095 10.47 15.525 12.05 14.555 13.31L21.045 19.8L19.635 21.21L13.145 14.72Z" fill="white"/>
</g>
</g>
<defs>
<clipPath id="clip0_1_592">
<rect width="22" height="22" fill="white" transform="translate(0.0949707 0.26001)"/>
</clipPath>
<clipPath id="clip1_1_592">
<rect width="176" height="811" fill="white" transform="translate(0.0949707 -746.74)"/>
</clipPath>
</defs>
</svg>
