<svg width="38" height="38" viewBox="0 0 38 38" fill="none" xmlns="http://www.w3.org/2000/svg">
<g clip-path="url(#clip0_1_4296)">
<g clip-path="url(#clip1_1_4296)">
<g clip-path="url(#clip2_1_4296)">
<path d="M13.358 7.92755C12.0527 8.57371 10.8733 9.44776 9.87536 10.5085C10.361 10.518 10.8496 10.4962 11.3385 10.4413C11.9072 9.52444 12.5855 8.68032 13.3584 7.92755H13.358ZM14.5131 7.42669C15.5538 7.37747 16.5875 7.44843 17.5949 7.63795C17.9402 7.32761 18.2659 6.99607 18.57 6.64526C17.1831 6.67383 15.8113 6.93807 14.5131 7.42669ZM13.874 8.55597C13.3404 9.08138 12.8554 9.65388 12.4248 10.2665C13.085 10.1246 13.7312 9.92373 14.3556 9.66638L13.874 8.55597ZM14.6275 8.23192L15.1042 9.33043C15.6798 9.04345 16.2297 8.70763 16.7478 8.32667C16.0451 8.2348 15.3357 8.2031 14.6275 8.23192ZM19.6114 6.66823C19.2871 7.08722 18.9355 7.48433 18.5589 7.85699C20.421 8.35166 22.1529 9.24645 23.6339 10.479C24.1818 9.8154 24.6803 9.11248 25.1254 8.3759C23.4477 7.37994 21.5583 6.7948 19.6114 6.66823ZM9.19115 11.2969C7.98084 12.8258 7.14916 14.6191 6.764 16.5307C7.61804 16.6963 8.48321 16.7983 9.35236 16.8359C9.44131 14.9067 9.95091 13.0203 10.8455 11.3088C10.2917 11.3433 9.73836 11.3384 9.19115 11.2969ZM17.8328 8.51577C17.097 9.13166 16.29 9.65705 15.4291 10.0807L17.6277 15.1491C19.6993 14.1694 21.5584 12.7924 23.0994 11.0963C21.5748 9.82803 19.7689 8.94305 17.8324 8.51536L17.8328 8.51577ZM11.8238 11.2055C10.8272 12.9274 10.2591 14.8636 10.1674 16.851C12.4727 16.8407 14.7532 16.3755 16.8783 15.4822L14.6821 10.4183C13.7654 10.7976 12.8054 11.0621 11.8238 11.2059V11.2055ZM25.8153 8.81973C25.3474 9.5914 24.8234 10.3276 24.2475 11.0225C25.5241 12.231 26.5422 13.6861 27.2399 15.2997C27.3892 15.6434 27.523 15.99 27.6403 16.3387C28.4657 15.4898 29.2283 14.582 29.9218 13.6223C28.9974 11.6893 27.5813 10.0332 25.8153 8.81973ZM6.62822 17.3379C6.34468 19.4617 6.62391 21.6226 7.43796 23.6046C8.6139 23.7342 9.79771 23.7783 10.98 23.7362C10.7744 23.3657 10.5869 22.9854 10.4181 22.5967C9.73953 21.0361 9.37424 19.3573 9.34292 17.6558C8.4314 17.6173 7.524 17.511 6.62822 17.3379ZM23.7098 11.639C22.0908 13.4248 20.135 14.8732 17.9547 15.901L20.3748 21.4801C22.8106 20.3567 25.0443 18.8391 26.986 16.9884C26.8466 16.5251 26.68 16.0704 26.4872 15.6266C25.838 14.1246 24.8935 12.7684 23.7098 11.6386V11.639ZM10.1559 17.669C10.19 19.2113 10.5181 20.7709 11.1687 22.2714C11.38 22.7581 11.6223 23.2307 11.8944 23.6862C14.5562 23.4888 17.1677 22.8563 19.625 21.814L17.2048 16.2349C14.9731 17.1741 12.5773 17.6615 10.1559 17.669ZM30.2959 14.4858C29.5663 15.458 28.7674 16.3761 27.9053 17.2329C28.458 19.3787 28.4544 21.63 27.8946 23.774C28.9534 23.0087 29.9615 22.1757 30.9124 21.28C31.3552 19.0025 31.1414 16.646 30.2959 14.4854V14.4858ZM7.82847 24.466C8.86557 26.5408 10.471 28.2782 12.4576 29.4757C13.7373 29.3732 15.0092 29.1892 16.2655 28.9248C14.3182 27.8913 12.6648 26.3807 11.46 24.5345C10.2494 24.5992 9.03575 24.5764 7.82847 24.4664V24.466ZM27.2207 17.8905C25.2877 19.6699 23.0883 21.1361 20.7022 22.2357L22.6847 26.8053C24.122 26.1509 25.5065 25.3861 26.8256 24.5177C26.8256 24.5164 26.8265 24.5152 26.8269 24.5144C27.5643 22.3847 27.7006 20.0929 27.2207 17.8909V17.8905ZM12.401 24.4672C13.6947 26.297 15.4647 27.7376 17.519 28.6328C19.0266 28.247 20.5025 27.7469 21.934 27.1368L19.9515 22.5672C17.5481 23.5873 15.001 24.2283 12.401 24.4672ZM30.5416 22.7185C29.5758 23.5589 28.5589 24.3387 27.4967 25.0534C26.8079 26.9123 25.713 28.5941 24.2918 29.9762C27.372 28.4531 29.553 25.7864 30.5416 22.7185ZM13.7649 30.1636C16.6412 31.4611 20.004 31.6547 23.1535 30.4701C21.2086 30.5627 19.2671 30.2278 17.4657 29.4889C16.2469 29.7883 15.011 30.0135 13.7649 30.1632V30.1636ZM26.287 25.827C25.2304 26.4688 24.1368 27.0476 23.012 27.5605L23.7832 29.3387C24.8154 28.3226 25.6627 27.1344 26.287 25.8274V25.827ZM18.8325 29.1221C20.1909 29.5421 21.6111 29.7266 23.0317 29.6677L22.2605 27.8895C21.1426 28.3662 19.998 28.7778 18.8325 29.1221Z" fill="#339966"/>
<path d="M18.83 0.491089C12.531 0.491089 6.96622 3.65168 3.63458 8.47193L7.20332 10.5332C9.81383 6.93573 14.0487 4.59308 18.83 4.59308C23.6113 4.59308 27.8466 6.93532 30.4567 10.5332L34.0254 8.47193C30.6938 3.65168 25.129 0.491089 18.83 0.491089Z" fill="#990000"/>
<path d="M1.69147 12.0895C0.816995 14.271 0.368764 16.5998 0.371041 18.9501C0.371041 28.4462 7.55364 36.2753 16.779 37.2962V33.1581C9.82491 32.1618 4.47304 26.179 4.47304 18.9501C4.47139 17.3204 4.74802 15.7024 5.29098 14.1659L1.69147 12.0895ZM35.9686 12.0895L32.3691 14.1663C32.9119 15.7027 33.1885 17.3206 33.187 18.9501C33.187 26.1786 27.8351 32.1618 20.881 33.1586V37.2962C30.1064 36.2748 37.289 28.4462 37.289 18.9501C37.289 16.5258 36.8193 14.211 35.9686 12.0895Z" fill="#006699"/>
</g>
</g>
</g>
<defs>
<clipPath id="clip0_1_4296">
<rect width="37" height="37" fill="white" transform="translate(0.330017 0.450073)"/>
</clipPath>
<clipPath id="clip1_1_4296">
<rect width="176" height="811" fill="white" transform="translate(0.330017 -88.5499)"/>
</clipPath>
<clipPath id="clip2_1_4296">
<rect width="37" height="37" fill="white" transform="translate(0.330017 0.450073)"/>
</clipPath>
</defs>
</svg>
