<svg width="44" height="38" viewBox="0 0 44 38" fill="none" xmlns="http://www.w3.org/2000/svg">
<g clip-path="url(#clip0_1_3065)">
<g clip-path="url(#clip1_1_3065)">
<path d="M21.69 2.01013C21.22 2.09013 20.72 2.43013 20.24 3.08013C19.84 3.63013 19.44 4.38013 19.1 5.31013H24.26C23.98 4.51165 23.5932 3.75477 23.11 3.06013C22.63 2.43013 22.14 2.09013 21.71 2.02013L21.69 2.01013ZM23.29 2.15013C23.43 2.30013 23.57 2.45013 23.69 2.62013C24.19 3.32013 24.65 4.22013 25.04 5.32013H28.64C27.2477 3.71123 25.3699 2.59865 23.29 2.15013ZM20.05 2.15013C18.05 2.55013 16.23 3.68013 14.75 5.31013H18.31C18.6907 4.15569 19.2805 3.08114 20.05 2.14013V2.15013ZM17.4 2.31013C15.5 2.93013 13.76 3.96013 12.3 5.31013H13.78C14.7664 4.0707 15.999 3.0492 17.4 2.31013ZM29.6 5.31013H31.1C29.6357 3.96929 27.8996 2.95971 26.01 2.35013C27.35 3.05013 28.55 4.05013 29.57 5.31013H29.6ZM11.53 6.05013C10.4333 7.23404 9.55325 8.60151 8.93002 10.0901H11.23C11.6865 8.64924 12.361 7.28677 13.23 6.05013H11.53ZM12 10.0901H17.2C17.4 8.59013 17.7 7.23013 18.06 6.05013H14.13C13.213 7.27708 12.4943 8.64033 12 10.0901ZM18.83 6.05013C18.4325 7.37198 18.1383 8.72271 17.95 10.0901H25.41C25.2206 8.7212 24.9196 7.37004 24.51 6.05013H18.83ZM25.29 6.05013C25.65 7.23013 25.95 8.59013 26.16 10.0901H31.36C30.8819 8.6334 30.1619 7.26762 29.23 6.05013H25.29ZM30.15 6.05013C30.98 7.25013 31.65 8.60013 32.15 10.0901H34.45C33.8221 8.59699 32.9313 7.22864 31.82 6.05013H30.13H30.15ZM8.63002 10.8201C8.08889 12.3385 7.81156 13.9382 7.81002 15.5501H10.38C10.38 13.9001 10.6 12.3101 11 10.8201H8.63002ZM11.77 10.8201C11.336 12.3592 11.1173 13.951 11.12 15.5501H16.84C16.84 13.8801 16.94 12.2901 17.1 10.8201H11.76H11.77ZM17.85 10.8201C17.6731 12.3905 17.5863 13.9698 17.59 15.5501H25.79C25.79 13.8801 25.69 12.2901 25.51 10.8201H17.85ZM26.25 10.8201C26.43 12.3001 26.52 13.8801 26.52 15.5501H32.24C32.24 13.8901 32.01 12.3001 31.59 10.8201H26.25ZM32.37 10.8201C32.77 12.3201 32.99 13.9001 32.99 15.5501H35.56C35.56 13.9501 35.28 12.3501 34.73 10.8201H32.37ZM1.33002 16.9501V18.3701H42.33V16.9501H1.33002ZM2.73002 19.8501V33.8701H8.17002V19.8701H2.73002V19.8501ZM13.56 19.8501V33.8701H18.99V19.8701H13.56V19.8501ZM24.38 19.8501V33.8701H29.81V19.8701H24.38V19.8501ZM35.2 19.8501V33.8701H40.64V19.8701H35.21L35.2 19.8501ZM1.33002 36.4301H42.33V35.0301H1.33002V36.4301Z" fill="#006499"/>
</g>
</g>
<defs>
<clipPath id="clip0_1_3065">
<rect width="43" height="37" fill="white" transform="translate(0.330017 0.950073)"/>
</clipPath>
<clipPath id="clip1_1_3065">
<rect width="176" height="811" fill="white" transform="translate(0.330017 -458.05)"/>
</clipPath>
</defs>
</svg>
