<svg width="48" height="48" viewBox="0 0 48 48" fill="none" xmlns="http://www.w3.org/2000/svg">
<g clip-path="url(#clip0_1_2026)">
<g clip-path="url(#clip1_1_2026)">
<g clip-path="url(#clip2_1_2026)">
<path d="M23.83 36.2286C26.9878 36.2286 29.5478 33.6687 29.5478 30.5109C29.5478 27.353 26.9878 24.7931 23.83 24.7931C20.6722 24.7931 18.1122 27.353 18.1122 30.5109C18.1122 33.6687 20.6722 36.2286 23.83 36.2286Z" fill="#990000"/>
<mask id="mask0_1_2026" style="mask-type:luminance" maskUnits="userSpaceOnUse" x="6" y="13" width="35" height="35">
<path d="M23.83 47.5499C33.2404 47.5499 40.869 39.9213 40.869 30.511C40.869 21.1006 33.2404 13.472 23.83 13.472C14.4197 13.472 6.79111 21.1006 6.79111 30.511C6.79111 39.9213 14.4197 47.5499 23.83 47.5499Z" fill="white"/>
</mask>
<g mask="url(#mask0_1_2026)">
<path d="M23.2011 40.803V47.5499H24.459V40.803" fill="#006699"/>
<path d="M21.3714 41.0889L23.83 36.8005L26.2887 41.0889" fill="#006699"/>
</g>
<mask id="mask1_1_2026" style="mask-type:luminance" maskUnits="userSpaceOnUse" x="6" y="13" width="35" height="35">
<path d="M11.7817 42.5592C18.4358 49.2133 29.2242 49.2133 35.8784 42.5592C42.5325 35.9051 42.5325 25.1166 35.8784 18.4625C29.2242 11.8084 18.4358 11.8084 11.7817 18.4625C5.12756 25.1166 5.12756 35.9051 11.7817 42.5592Z" fill="white"/>
</mask>
<g mask="url(#mask1_1_2026)">
<path d="M16.1078 37.3436L11.3369 42.1144L12.2264 43.0039L16.9972 38.2331" fill="#006699"/>
<path d="M14.6118 36.252L19.3827 34.9582L18.0889 39.7291" fill="#006699"/>
</g>
<mask id="mask2_1_2026" style="mask-type:luminance" maskUnits="userSpaceOnUse" x="6" y="13" width="35" height="35">
<path d="M6.7911 30.5109C6.7911 39.9212 14.4197 47.5498 23.83 47.5498C33.2404 47.5498 40.869 39.9212 40.869 30.5109C40.869 21.1005 33.2404 13.4719 23.83 13.4719C14.4197 13.4719 6.7911 21.1005 6.7911 30.5109Z" fill="white"/>
</mask>
<g mask="url(#mask2_1_2026)">
<path d="M13.5381 29.882H6.7911V31.1399H13.5381" fill="#006699"/>
<path d="M13.2522 28.0522L17.5405 30.5109L13.2522 32.9695" fill="#006699"/>
</g>
<mask id="mask3_1_2026" style="mask-type:luminance" maskUnits="userSpaceOnUse" x="6" y="13" width="35" height="35">
<path d="M11.7817 18.4625C5.12755 25.1166 5.12755 35.9051 11.7817 42.5592C18.4358 49.2133 29.2242 49.2133 35.8784 42.5592C42.5325 35.9051 42.5325 25.1166 35.8784 18.4625C29.2242 11.8084 18.4358 11.8084 11.7817 18.4625Z" fill="white"/>
</mask>
<g mask="url(#mask3_1_2026)">
<path d="M16.9972 22.7886L12.2264 18.0178L11.3369 18.9072L16.1077 23.678" fill="#006699"/>
<path d="M18.0889 21.2927L19.3826 26.0635L14.6118 24.7697" fill="#006699"/>
</g>
<mask id="mask4_1_2026" style="mask-type:luminance" maskUnits="userSpaceOnUse" x="6" y="13" width="35" height="35">
<path d="M35.8784 42.5592C29.2242 49.2133 18.4358 49.2133 11.7817 42.5592C5.12756 35.9051 5.12756 25.1166 11.7817 18.4625C18.4358 11.8084 29.2242 11.8084 35.8784 18.4625C42.5325 25.1166 42.5325 35.9051 35.8784 42.5592Z" fill="white"/>
</mask>
<g mask="url(#mask4_1_2026)">
<path d="M31.5523 37.3436L36.3231 42.1144L35.4336 43.0039L30.6628 38.2331" fill="#006699"/>
<path d="M33.0482 36.252L28.2774 34.9582L29.5712 39.7291" fill="#006699"/>
</g>
<mask id="mask5_1_2026" style="mask-type:luminance" maskUnits="userSpaceOnUse" x="6" y="13" width="35" height="35">
<path d="M40.8689 30.5109C40.8689 39.9212 33.2403 47.5498 23.83 47.5498C14.4197 47.5498 6.79108 39.9212 6.79108 30.5109C6.79108 21.1005 14.4197 13.4719 23.83 13.4719C33.2403 13.4719 40.8689 21.1005 40.8689 30.5109Z" fill="white"/>
</mask>
<g mask="url(#mask5_1_2026)">
<path d="M34.122 29.882H40.8689V31.1399H34.122" fill="#006699"/>
<path d="M34.4079 28.0522L30.1195 30.5109L34.4079 32.9695" fill="#006699"/>
</g>
<mask id="mask6_1_2026" style="mask-type:luminance" maskUnits="userSpaceOnUse" x="6" y="13" width="35" height="35">
<path d="M35.8784 18.4625C42.5325 25.1166 42.5325 35.9051 35.8784 42.5592C29.2242 49.2133 18.4358 49.2133 11.7817 42.5592C5.12756 35.9051 5.12756 25.1166 11.7817 18.4625C18.4358 11.8084 29.2242 11.8084 35.8784 18.4625Z" fill="white"/>
</mask>
<g mask="url(#mask6_1_2026)">
<path d="M30.6628 22.7886L35.4336 18.0178L36.3231 18.9072L31.5523 23.678" fill="#006699"/>
<path d="M29.5712 21.2927L28.2774 26.0635L33.0482 24.7697" fill="#006699"/>
</g>
<path d="M13.4797 20.1607C11.4326 22.2078 10.0386 24.8159 9.47379 27.6553C8.90901 30.4947 9.19888 33.4378 10.3068 36.1124C11.4146 38.7871 13.2908 41.0731 15.6979 42.6815C18.105 44.2899 20.935 45.1484 23.83 45.1484C26.725 45.1484 29.555 44.2899 31.9621 42.6815C34.3693 41.0731 36.2454 38.7871 37.3533 36.1124C38.4611 33.4378 38.751 30.4947 38.1862 27.6553C37.6215 24.8159 36.2274 22.2078 34.1803 20.1607C30.1373 16.1176 24.0318 18.1795 22.8191 9.28491" stroke="#006699" stroke-width="4.80292"/>
<path d="M22.5149 1.06445C22.5149 1.06445 20.4565 8.78343 17.9407 11.6423C15.4249 14.5012 24.5733 8.0973 27.6609 11.3564C30.7485 14.6155 22.5149 1.06445 22.5149 1.06445Z" fill="#006699"/>
</g>
</g>
</g>
<defs>
<clipPath id="clip0_1_2026">
<rect width="47" height="47" fill="white" transform="translate(0.330017 0.950073)"/>
</clipPath>
<clipPath id="clip1_1_2026">
<rect width="176" height="811" fill="white" transform="translate(0.330017 0.950073)"/>
</clipPath>
<clipPath id="clip2_1_2026">
<rect width="47" height="47" fill="white" transform="translate(0.330017 0.950073)"/>
</clipPath>
</defs>
</svg>
