<svg width="38" height="38" viewBox="0 0 38 38" fill="none" xmlns="http://www.w3.org/2000/svg">
<g clip-path="url(#clip0_1_2440)">
<g clip-path="url(#clip1_1_2440)">
<g clip-path="url(#clip2_1_2440)">
<path d="M27.5819 3.94339L4.08547 7.75672C2.42469 8.02625 1.3878 10.0472 1.76951 12.2706L5.42633 33.5714C5.80803 35.7948 7.46379 37.3787 9.12457 37.1092L32.621 33.2958C34.2818 33.0263 35.3187 31.0054 34.937 28.782L31.2802 7.4812C30.8985 5.25779 29.2427 3.67386 27.5819 3.94339Z" fill="#E7C78D" stroke="black" stroke-width="0.360643" stroke-linecap="round" stroke-linejoin="round"/>
<path d="M27.9165 1.79093L4.42006 5.60425C2.75929 5.87379 1.7224 7.89472 2.1041 10.1181L5.76092 31.4189C6.14263 33.6423 7.79839 35.2262 9.45916 34.9567L32.9556 31.1434C34.6164 30.8738 35.6533 28.8529 35.2716 26.6295L31.6148 5.32874C31.233 3.10533 29.5773 1.5214 27.9165 1.79093Z" fill="url(#paint0_linear_1_2440)" stroke="black" stroke-width="0.360643" stroke-linecap="round" stroke-linejoin="round"/>
<path d="M30.3412 7.41956L30.4197 7.95671C29.9315 8.02753 29.5502 8.1768 29.2734 8.40451C28.9967 8.63332 28.7581 9.01902 28.5565 9.56162C28.4225 9.92771 28.2514 10.7776 28.0444 12.1134L25.1745 28.7422L24.6221 28.8217L18.4945 16.8529L16.1182 30.0572L15.6213 30.1292L7.63923 14.5877C7.04433 13.4274 6.67497 12.7453 6.53224 12.5383C6.31976 12.2181 6.01504 11.97 5.65842 11.8268C5.31412 11.6939 4.87067 11.6666 4.32807 11.7462L4.24854 11.209L11.1781 10.2023L11.2576 10.7394L10.9264 10.7874C10.4394 10.8582 10.0831 11.0293 9.85975 11.2995C9.75304 11.4208 9.6743 11.5641 9.62911 11.7193C9.58393 11.8744 9.57339 12.0376 9.59825 12.1973C9.64837 12.535 9.96543 13.2857 10.5516 14.4461L15.8719 24.9603L17.588 15.1151L16.7915 13.5407L16.1541 12.2833C15.8893 11.8268 15.6093 11.4335 15.3162 11.1001C15.1724 10.9357 14.9991 10.7998 14.8052 10.6991C14.5734 10.5669 14.3218 10.4731 14.06 10.4213C13.8758 10.3886 13.5958 10.3995 13.2188 10.454L13.1393 9.91791L20.4284 8.85886L20.508 9.39601L20.0111 9.46901C19.4958 9.5431 19.1351 9.71416 18.9303 9.9811C18.7255 10.2491 18.6525 10.5804 18.7102 10.977C18.7832 11.4705 19.1177 12.3029 19.7137 13.472L24.8869 23.6518L26.8437 12.2877C27.0715 11.0293 27.151 10.1674 27.0823 9.70217C27.0497 9.47991 26.9516 9.28161 26.7893 9.10728C26.64 8.94057 26.4429 8.82411 26.2249 8.77387C25.8555 8.68889 25.3903 8.68671 24.8281 8.76843L24.7485 8.23127L30.3401 7.41956H30.3412Z" fill="url(#paint1_linear_1_2440)" stroke="black" stroke-width="0.271299"/>
</g>
</g>
</g>
<defs>
<linearGradient id="paint0_linear_1_2440" x1="32.2886" y1="21.2532" x2="5.76725" y2="15.7236" gradientUnits="userSpaceOnUse">
<stop stop-color="#F4E3CA"/>
<stop offset="1" stop-color="#E9CC9D"/>
</linearGradient>
<linearGradient id="paint1_linear_1_2440" x1="32.1919" y1="24.7617" x2="7.04038" y2="10.8854" gradientUnits="userSpaceOnUse">
<stop stop-color="#0036D4"/>
<stop offset="1" stop-color="#010057"/>
</linearGradient>
<clipPath id="clip0_1_2440">
<rect width="37" height="37" fill="white" transform="translate(0.0200195 0.950073)"/>
</clipPath>
<clipPath id="clip1_1_2440">
<rect width="176" height="811" fill="white" transform="translate(0.0200195 -531.05)"/>
</clipPath>
<clipPath id="clip2_1_2440">
<rect width="37" height="37" fill="white" transform="translate(0.0200195 0.950073)"/>
</clipPath>
</defs>
</svg>
