<svg width="38" height="38" viewBox="0 0 38 38" fill="none" xmlns="http://www.w3.org/2000/svg">
<g clip-path="url(#clip0_1_2646)">
<g clip-path="url(#clip1_1_2646)">
<g clip-path="url(#clip2_1_2646)">
<path fill-rule="evenodd" clip-rule="evenodd" d="M17.8082 13.758C18.4539 21.8465 19.8665 29.6778 24.0811 37.2187L25.6738 37.2309L35.7569 28.2358L26.1467 3.953L19.2196 10.5689L17.8082 13.758Z" fill="#FDFCF8"/>
<path fill-rule="evenodd" clip-rule="evenodd" d="M9.7442 13.7653C10.3911 21.8551 12.0451 29.7905 16.2596 37.3302L18.7516 37.3522L26.3427 27.8302L18.0839 3.96033L11.1568 10.5774L9.7442 13.7666V13.7653Z" fill="#F4EED7"/>
<path fill-rule="evenodd" clip-rule="evenodd" d="M0.479492 13.5938C1.13863 22.0818 3.78866 29.6839 6.90671 37.0802L10.1902 37.0398L18.8153 27.2336L8.81797 3.7876L1.89088 10.4047L0.479492 13.5926V13.5938Z" fill="#E9DDAF"/>
<path d="M26.589 1.56995C23.2578 4.79213 19.9645 7.98736 19.9645 7.98736L21.148 10.3948C22.753 8.80455 24.3653 7.40541 25.9029 5.85067C29.1422 12.9615 31.3487 18.6916 34.0625 26.2681C34.952 28.7282 34.7706 28.8385 32.6462 30.169C29.2329 31.8658 28.1535 32.9795 24.086 37.3068H26.8695C30.2694 34.2316 31.5313 33.1474 35.7887 30.9041C37.2957 30.0342 37.5028 28.9365 36.884 27.2286C34.8919 21.6908 30.5757 9.75773 26.589 1.56995Z" fill="#5F96D3"/>
<path fill-rule="evenodd" clip-rule="evenodd" d="M17.905 1.64722C15.4694 3.29016 13.5887 5.65841 11.4692 7.68851L12.3391 10.4611C13.9979 9.15381 15.4412 7.57702 16.9334 6.08477L24.9767 26.262C25.441 27.6281 24.7108 28.8434 23.243 30.1666C21.4849 31.5792 17.8646 34.8737 16.2241 37.3828H18.721C21.3404 34.6924 21.8133 34.3273 24.7978 31.7434C26.7997 29.6998 28.608 28.6535 27.6647 26.0341L17.905 1.64844V1.64722Z" fill="#2A62A1"/>
<path fill-rule="evenodd" clip-rule="evenodd" d="M9.68171 1.51734C9.03237 1.73542 8.49207 2.15442 7.98485 2.59548C1.11412 9.21015 0.837236 9.48949 0.837236 9.48949C0.475812 9.82396 0.445183 10.3153 0.450083 10.809L0.479487 13.5926C0.479487 13.5926 3.65267 10.5076 8.39038 5.94754C10.9412 12.5904 13.6035 19.2002 16.2241 25.8209C16.5831 26.8207 15.7242 27.6403 14.6363 28.7344C13.1318 30.2009 9.98677 33.2209 6.76826 37.253H9.99535L17.7519 28.7466C18.4894 27.7322 19.4058 26.741 19.0199 25.8209L9.68171 1.51611V1.51734Z" fill="#15304F"/>
</g>
</g>
</g>
<defs>
<clipPath id="clip0_1_2646">
<rect width="37" height="37" fill="white" transform="translate(0.330017 0.950073)"/>
</clipPath>
<clipPath id="clip1_1_2646">
<rect width="176" height="811" fill="white" transform="translate(0.330017 -125.05)"/>
</clipPath>
<clipPath id="clip2_1_2646">
<rect width="37" height="37" fill="white" transform="translate(0.330017 0.950073)"/>
</clipPath>
</defs>
</svg>
