<svg width="40" height="40" viewBox="0 0 40 40" fill="none" xmlns="http://www.w3.org/2000/svg">
<g clip-path="url(#clip0_1_3680)">
<g clip-path="url(#clip1_1_3680)">
<g clip-path="url(#clip2_1_3680)">
<path fill-rule="evenodd" clip-rule="evenodd" d="M19.7126 1.04041C13.5485 1.08193 8.09389 4.2886 4.75903 9.18617H34.901C31.5444 4.257 26.0447 1.04041 19.8318 1.04041H19.7126Z" fill="#608AB4"/>
<path fill-rule="evenodd" clip-rule="evenodd" d="M3.68833 10.9565C2.12784 13.8768 1.3152 17.1382 1.32305 20.4493C1.32305 31.1634 9.61597 39.8599 19.8318 39.8599C30.0476 39.8599 38.3369 31.1634 38.3369 20.4493C38.3369 17.0006 37.4793 13.7642 35.9735 10.9565H3.68923H3.68833Z" fill="#375493"/>
<path fill-rule="evenodd" clip-rule="evenodd" d="M4.75903 9.18616C4.37152 9.75672 4.01442 10.3474 3.68924 10.9556H35.9735C35.6474 10.3473 35.2894 9.75668 34.901 9.18616H4.75903Z" fill="#D6DDE3"/>
<path fill-rule="evenodd" clip-rule="evenodd" d="M27.7347 3.21606C27.658 3.21787 27.5758 3.23502 27.4883 3.2612C26.664 4.57745 26.6667 8.93787 26.6776 9.88127H26.683C27.9036 10.1521 29.5195 9.84065 29.5737 8.67245C29.6667 7.13322 29.7597 5.64093 28.9436 4.68218C28.1979 5.02162 28.3387 3.64398 28.0363 3.33523C27.9604 3.24856 27.8557 3.21426 27.7356 3.21697L27.7347 3.21606Z" fill="#7BBCE5"/>
<path fill-rule="evenodd" clip-rule="evenodd" d="M27.4883 3.26123C27.054 3.39484 26.5241 3.78936 26.2632 3.91665C26.0357 3.94102 25.6132 3.92387 25.2981 4.00422C24.621 4.17845 24.0054 4.59102 23.6497 5.24102C23.191 3.90762 22.2052 5.54706 21.037 6.49137C20.3897 6.00387 19.087 5.03158 17.8908 4.40595C16.9294 4.89255 15.9228 6.53831 15.3233 6.67734C14.7013 6.7938 13.8247 6.72519 13.46 7.16484C12.8533 7.79227 12.6656 8.50998 12.5491 9.18345C13.9719 9.6863 15.4642 9.70165 16.8869 9.50845C17.6949 9.31526 18.2709 9.58699 19.1024 9.5563C21.6274 9.66463 24.3619 9.35679 26.6767 9.8813C26.6667 8.9379 26.664 4.57748 27.4892 3.26213L27.4883 3.26123Z" fill="white"/>
<path fill-rule="evenodd" clip-rule="evenodd" d="M19.0563 5.88831C19.3597 6.80192 19.6233 7.71463 19.5222 8.62733C19.4138 9.19157 19.6549 9.15275 20.1054 8.92886C20.5486 8.68872 20.7824 8.42601 21.4352 8.20935C21.9407 8.07032 21.5823 7.69928 21.3413 7.44379C20.6209 6.76129 19.8372 6.33067 19.0563 5.88921V5.88831Z" fill="#7BBCE5"/>
<path fill-rule="evenodd" clip-rule="evenodd" d="M21.6473 10.9565C22.1781 17.9829 26.9222 18.8468 29.9077 17.4258C28.4154 15.957 28.9571 12.9625 30.5487 12.93C33.4954 12.8578 32.6567 18.3331 32.6576 20.9909C34.2681 20.665 34.1625 14.6011 33.8204 10.9565H21.6473Z" fill="#294584"/>
<path fill-rule="evenodd" clip-rule="evenodd" d="M6.39035 10.9565L6.56278 12.7711C6.95278 13.4816 7.24257 14.1894 7.16132 14.8999C7.93139 14.7103 8.39 14.6119 8.80438 15.3964C10.6154 16.5186 12.336 16.6513 14.0297 16.4861C14.3745 20.563 14.2734 23.8428 14.129 28.716C15.1581 30.4168 16.1873 32.0292 17.2165 33.7291C17.806 34.7628 18.8424 35.0896 19.6558 33.8672L21.7439 32.9283V33.9665C22.8137 34.2347 23.8717 34.6418 23.3869 35.7504C23.0168 36.4663 23.2244 36.785 24.2771 36.3065C25.2069 35.8552 25.7802 36.5548 26.2659 36.6785C25.5744 35.9454 26.1693 34.5028 26.191 33.0132C27.184 32.9229 28.317 32.0274 29.3101 31.9371C31.3504 29.9663 31.7024 29.2324 31.6988 26.6865C31.9038 26.0266 32.1981 25.8524 32.0473 24.7058C32.1647 23.9954 32.3263 23.0673 32.4418 22.3568L32.6747 20.9882L32.6567 20.9909C32.6567 18.3331 33.4963 12.8587 30.5496 12.9291C28.9571 12.9625 28.4154 15.957 29.9086 17.4258C29.5553 17.5942 29.1865 17.7275 28.8072 17.824C28.9291 18.5173 28.4253 19.2278 27.7663 19.2576C27.1091 19.1998 26.1413 19.8489 25.5283 21.3385C24.5479 23.395 23.656 21.6057 23.2985 21.0532C22.839 20.4465 23.4032 19.8823 22.1438 20.2488C21.3133 20.5043 20.2597 20.6731 20.0078 19.4246C18.9462 18.3512 17.9288 17.4096 16.8671 16.3371C16.4428 15.8343 16.7958 15.4217 16.7994 15.2447V15.2267L16.7958 15.2186C16.7938 15.2116 16.7911 15.205 16.7876 15.1987L16.7849 15.1933L16.7822 15.1906C16.7793 15.1875 16.7763 15.1845 16.7732 15.1815L16.7624 15.1734L16.756 15.1707C16.7515 15.168 16.7452 15.1671 16.7398 15.1653C16.3254 14.9053 15.8235 15.2186 15.2755 15.4452C13.8464 15.7061 13.2885 15.4542 13.1341 14.7022C13.1422 13.4599 12.4399 13.5899 11.2924 13.7624C7.98556 14.2318 7.45111 13.0672 6.48695 10.9565H6.39035Z" fill="#E0E9EA"/>
<path fill-rule="evenodd" clip-rule="evenodd" d="M6.48694 10.9565C7.4502 13.0663 7.98555 14.2309 11.2924 13.7624C12.439 13.589 13.1413 13.4599 13.1341 14.7013C13.2876 15.4542 13.8464 15.7052 15.2755 15.4443C15.8226 15.2186 16.3245 14.9053 16.7389 15.1644L16.7569 15.1707L16.7615 15.1734L16.7732 15.1824L16.7822 15.1906L16.784 15.1933L16.7876 15.1987C16.7914 15.2049 16.7945 15.2116 16.7967 15.2186L16.7985 15.2276V15.2438C16.7958 15.4208 16.4428 15.8343 16.8671 16.3362C17.9287 17.4096 18.9453 18.3512 20.0078 19.4237C20.2606 20.6731 21.3133 20.5043 22.1438 20.2488C23.4032 19.8823 22.839 20.4465 23.2985 21.0523C23.656 21.6057 24.5479 23.395 25.5283 21.3385C26.1422 19.8489 27.1082 19.1989 27.7672 19.2576C28.4262 19.2278 28.9291 18.5173 28.8081 17.824C25.8786 18.5652 22.1167 17.1686 21.6473 10.9565H6.48694Z" fill="#4D8AC0"/>
<path fill-rule="evenodd" clip-rule="evenodd" d="M16.3931 19.0291C15.4398 19.0905 15.9372 22.2611 16.041 23.7624C16.1828 25.2402 16.5132 24.8927 17.5505 24.2481C18.0272 25.2104 17.7374 25.7476 17.063 26.3705C16.5601 26.8427 16.2722 27.5486 16.7082 28.3602C16.8409 28.5814 16.9528 28.6762 17.1081 29.0238C17.2119 29.2305 17.3131 29.439 17.4169 29.6449C17.5369 30.1017 17.4015 30.3852 17.2011 30.6298C17.016 30.8943 16.9799 31.1606 17.221 31.8919C17.3528 32.3162 16.9926 32.8236 17.5505 33.2695C17.7765 33.447 18.0244 33.5947 18.2881 33.7092C18.0732 33.0863 18.0669 32.1871 18.1716 31.4143C18.2429 30.6858 18.2926 30.2335 18.9606 29.7379C19.5438 29.4408 19.3813 27.8718 19.431 26.9383L19.4508 26.9519V26.9383C20.6985 26.6765 20.0042 25.6835 19.6215 24.7311L16.5719 19.0526C16.5174 19.0362 16.4608 19.0283 16.404 19.0291H16.3931Z" fill="#D6DDE3"/>
<path fill-rule="evenodd" clip-rule="evenodd" d="M16.5719 19.0508L19.6215 24.7311C20.0042 25.6835 20.6985 26.6756 19.4508 26.9384C19.5619 27.6028 20.3897 28.1815 21.3069 28.1029C22.2612 28.0424 22.9554 28.7529 23.2696 29.4697C23.3111 28.6789 23.4086 27.8944 23.6018 27.1189C23.7246 26.7352 24.4233 26.3958 23.8428 25.8848C21.492 23.3092 19.2251 21.2852 16.682 19.0914C16.6463 19.0756 16.6095 19.0624 16.5719 19.0517V19.0508Z" fill="#608AB4"/>
<path fill-rule="evenodd" clip-rule="evenodd" d="M19.4319 26.9384C19.3822 27.8719 19.5438 29.4409 18.9606 29.7379C18.2926 30.2335 18.2429 30.6858 18.1716 31.4144C18.0669 32.1881 18.0723 33.089 18.289 33.7119C18.509 33.8052 18.7393 33.8719 18.9751 33.9106C19.3786 33.9467 19.6323 34.046 20.4836 33.8898C21.2293 33.8049 21.6771 33.442 22.5293 33.3147C22.9943 33.2235 23.3093 33.0466 23.284 32.3397C23.2479 31.3756 23.2209 30.4186 23.2696 29.4698C22.9554 28.753 22.2612 28.0434 21.307 28.1039C20.3997 28.1806 19.5809 27.6164 19.4545 26.961V26.9556C19.4472 26.9492 19.4382 26.9447 19.4319 26.9375V26.9384Z" fill="#236798"/>
<path fill-rule="evenodd" clip-rule="evenodd" d="M31.9651 25.9977C31.8866 26.2143 31.7846 26.4066 31.6988 26.6865C31.7024 29.2323 31.3503 29.9663 29.3101 31.9371C29.292 31.9416 28.7079 33.303 28.2123 33.6587C27.3754 34.2734 27.4269 34.8323 27.1172 35.5048C26.8915 35.8443 26.581 35.8993 26.3562 35.838C26.2162 35.7269 26.0745 35.6755 25.9337 35.5075C25.9246 35.782 25.9445 36.033 26.0158 36.2523L26.0249 36.2722V36.2749C26.0637 36.3543 26.1007 36.4356 26.1377 36.515L26.144 36.5241V36.5259C26.1774 36.5782 26.2162 36.6288 26.2596 36.6757L26.2199 36.6649C27.0775 38.0281 28.2872 38.4542 29.84 37.918C30.4997 37.6379 31.1198 37.2725 31.6844 36.831C32.1358 36.4049 32.6729 35.605 31.8261 35.5527C31.7051 35.5211 31.6383 35.4895 31.6049 35.4561L31.5995 35.4507C31.5959 35.4471 31.5932 35.4407 31.5905 35.4362C31.5868 35.4302 31.5838 35.4239 31.5815 35.4173L31.5797 35.4109V35.3947C31.5815 35.2728 31.8135 35.0995 31.6356 34.7483C31.5146 34.2102 32.0301 33.7011 32.3994 33.5657L31.6356 31.9082C31.6537 31.5462 32.3705 31.3548 32.254 30.6777C32.4617 28.9759 32.7415 26.4491 31.9651 25.9977Z" fill="#608AB4"/>
<path fill-rule="evenodd" clip-rule="evenodd" d="M27.3862 19.2946C26.7724 19.4589 26.0312 20.1161 25.5283 21.3376C25.2981 21.8197 25.0724 22.0905 24.8585 22.216C24.8801 24.3159 25.3821 25.8109 26.4185 26.6306C26.1115 27.8448 25.8046 29.5195 26.3625 30.5342C25.42 30.2372 25.8037 32.1231 25.5256 32.9166C25.0544 34.2365 24.64 34.1787 24.1976 34.2934C24.6012 34.7529 25.1212 35.2404 25.8994 35.5275V35.5329C25.9022 35.5409 25.9061 35.5485 25.9111 35.5554C25.9689 35.643 26.2298 35.7387 26.3562 35.838C26.5819 35.8994 26.8915 35.8443 27.1163 35.504C27.4278 34.8323 27.3754 34.2744 28.2114 33.6587C28.6962 33.3111 29.2658 32.0021 29.3092 31.9371C27.6544 31.0109 26.8717 29.2468 27.1389 27.5478C27.2165 27.0784 27.5244 26.5529 27.1118 25.7973C26.6162 23.7209 26.9312 21.3042 27.3862 19.2937V19.2946Z" fill="#236798"/>
</g>
</g>
</g>
<defs>
<clipPath id="clip0_1_3680">
<rect width="39" height="39" fill="white" transform="translate(0.330017 0.950073)"/>
</clipPath>
<clipPath id="clip1_1_3680">
<rect width="176" height="811" fill="white" transform="translate(0.330017 -377.05)"/>
</clipPath>
<clipPath id="clip2_1_3680">
<rect width="39" height="39" fill="white" transform="translate(0.330017 0.950073)"/>
</clipPath>
</defs>
</svg>
