<svg width="43" height="43" viewBox="0 0 43 43" fill="none" xmlns="http://www.w3.org/2000/svg">
<g clip-path="url(#clip0_1_3475)">
<g clip-path="url(#clip1_1_3475)">
<path opacity="0.65" d="M14.96 7.97599C14.8395 9.56183 15.2808 11.1395 16.2064 12.4328C16.8811 13.3208 17.8564 13.9323 18.9496 14.1528C19.1198 14.1754 19.2928 14.1617 19.4572 14.1126C19.6217 14.0634 19.7738 13.9799 19.9036 13.8676C20.4896 13.3246 20.9297 12.6431 21.1837 11.8857C21.4377 11.1283 21.4973 10.3193 21.3572 9.53279C20.8544 6.51679 18.8812 4.56079 16.3972 2.73279C15.5536 4.35955 15.0638 6.14643 14.96 7.97599Z" fill="url(#paint0_linear_1_3475)"/>
<path opacity="0.65" d="M11.5668 10.1489C11.8608 11.7119 12.6952 13.1216 13.924 14.1313C14.8054 14.8149 15.9059 15.1535 17.0192 15.0837C17.1894 15.0615 17.3529 15.0035 17.499 14.9134C17.6451 14.8234 17.7705 14.7034 17.8668 14.5613C18.2922 13.8851 18.541 13.1129 18.5903 12.3155C18.6395 11.5181 18.4877 10.7211 18.1488 9.99769C16.8824 7.21609 14.4704 5.83569 11.6 4.71289C11.2056 6.50226 11.1942 8.35484 11.5668 10.1489Z" fill="url(#paint1_linear_1_3475)"/>
<path opacity="0.65" d="M8.85164 13.1269C9.54026 14.5607 10.7115 15.7066 12.16 16.3637C13.1882 16.7961 14.3387 16.8388 15.396 16.4837C15.5547 16.4182 15.6977 16.3199 15.8155 16.195C15.9334 16.0702 16.0234 15.9219 16.0796 15.7597C16.3154 14.9966 16.3558 14.1865 16.1971 13.4038C16.0384 12.621 15.6856 11.8907 15.1712 11.2797C13.2276 8.91968 10.5408 8.21168 7.47644 7.87048C7.55908 9.69998 8.02774 11.4913 8.85164 13.1269Z" fill="url(#paint2_linear_1_3475)"/>
<path opacity="0.65" d="M6.99997 16.7065C8.0361 17.9128 9.46354 18.7162 11.0324 18.9761C12.1374 19.1273 13.2596 18.8703 14.1888 18.2533C14.3252 18.1489 14.4379 18.0167 14.5194 17.8655C14.6009 17.7142 14.6494 17.5474 14.6616 17.3761C14.692 16.5778 14.5213 15.7847 14.1654 15.0695C13.8094 14.3543 13.2796 13.74 12.6244 13.2829C10.136 11.5057 7.35757 11.5181 4.30957 11.9813C4.86291 13.7285 5.7798 15.3389 6.99997 16.7065Z" fill="url(#paint3_linear_1_3475)"/>
<path opacity="0.65" d="M6.13724 20.6433C7.45042 21.5407 9.03747 21.9475 10.6204 21.7925C11.727 21.6525 12.7446 21.1138 13.4824 20.2773C13.5871 20.1413 13.6617 19.9846 13.7014 19.8176C13.741 19.6506 13.7448 19.4771 13.7124 19.3085C13.5352 18.5295 13.1651 17.8076 12.6362 17.2089C12.1072 16.6102 11.4364 16.154 10.6852 15.8821C7.82124 14.8097 5.14084 15.5405 2.31604 16.7761C3.30268 18.3203 4.60494 19.6382 6.13724 20.6433Z" fill="url(#paint4_linear_1_3475)"/>
<path opacity="0.65" d="M6.32319 24.6689C7.82383 25.1958 9.46199 25.1779 10.9508 24.6185C11.9834 24.197 12.8269 23.4134 13.3232 22.4145C13.3891 22.256 13.4205 22.0853 13.4156 21.9138C13.4106 21.7422 13.3693 21.5737 13.2944 21.4193C12.9215 20.7128 12.3772 20.1113 11.7114 19.6699C11.0455 19.2286 10.2795 18.9615 9.48359 18.8933C6.43999 18.5985 4.03999 19.9981 1.63159 21.9237C2.9843 23.1594 4.58319 24.095 6.32319 24.6689Z" fill="url(#paint5_linear_1_3475)"/>
<path opacity="0.65" d="M7.54485 28.5097C9.13016 28.6298 10.7072 28.1886 12 27.2633C12.8881 26.5886 13.4996 25.6133 13.72 24.5201C13.7427 24.35 13.729 24.1769 13.6798 24.0125C13.6307 23.848 13.5472 23.6959 13.4348 23.5661C12.8918 22.9802 12.2104 22.54 11.453 22.2861C10.6956 22.0321 9.88651 21.9724 9.10005 22.1125C6.08405 22.6153 4.12805 24.5885 2.30005 27.0725C3.9273 27.9163 5.71475 28.4061 7.54485 28.5097Z" fill="url(#paint6_linear_1_3475)"/>
<path opacity="0.65" d="M9.71994 31.9032C11.2829 31.6093 12.6927 30.7748 13.7023 29.546C14.3859 28.6646 14.7245 27.5641 14.6547 26.4508C14.6326 26.2806 14.5745 26.1171 14.4845 25.971C14.3944 25.8249 14.2744 25.6995 14.1323 25.6032C13.4561 25.1778 12.6839 24.9291 11.8865 24.8798C11.0892 24.8305 10.2922 24.9823 9.56874 25.3212C6.78554 26.5876 5.40874 29.0012 4.28394 31.8716C6.07341 32.2656 7.926 32.2763 9.71994 31.9032Z" fill="url(#paint7_linear_1_3475)"/>
<path opacity="0.65" d="M12.6972 34.6185C14.1309 33.93 15.2767 32.7592 15.934 31.3109C16.3665 30.2828 16.4091 29.1322 16.054 28.0749C15.9885 27.9162 15.8902 27.7732 15.7654 27.6554C15.6406 27.5376 15.4922 27.4475 15.33 27.3913C14.5669 27.1555 13.7568 27.1151 12.9741 27.2738C12.1913 27.4326 11.461 27.7853 10.85 28.2997C8.49 30.2433 7.782 32.9301 7.4408 35.9945C9.27035 35.9116 11.0617 35.4427 12.6972 34.6185Z" fill="url(#paint8_linear_1_3475)"/>
<path opacity="0.65" d="M16.2764 36.47C17.4831 35.4339 18.2868 34.0063 18.5468 32.4372C18.698 31.3322 18.441 30.2099 17.824 29.2808C17.7197 29.1445 17.5876 29.0319 17.4366 28.9503C17.2855 28.8688 17.1188 28.8203 16.9476 28.808C16.1493 28.7777 15.3561 28.9483 14.6409 29.3044C13.9257 29.6604 13.3114 30.1903 12.8544 30.8456C11.0772 33.334 11.0896 36.1124 11.5528 39.1604C13.2995 38.6069 14.9093 37.69 16.2764 36.47Z" fill="url(#paint9_linear_1_3475)"/>
<path opacity="0.65" d="M20.2132 37.3324C21.1106 36.0194 21.5174 34.4325 21.3624 32.8496C21.2225 31.743 20.6837 30.7254 19.8472 29.9876C19.7112 29.8829 19.5545 29.8083 19.3875 29.7686C19.2205 29.729 19.047 29.7252 18.8784 29.7576C18.0995 29.9349 17.3775 30.305 16.7788 30.8339C16.1802 31.3628 15.7239 32.0337 15.452 32.7848C14.3796 35.6484 15.1104 38.3288 16.3468 41.1532C17.8907 40.1666 19.2084 38.8645 20.2132 37.3324Z" fill="url(#paint10_linear_1_3475)"/>
<path opacity="0.65" d="M24.24 37.1465C24.7671 35.6459 24.7494 34.0077 24.19 32.5189C23.7685 31.4862 22.9847 30.6427 21.9856 30.1465C21.8272 30.0806 21.6565 30.0491 21.485 30.0541C21.3134 30.0591 21.1449 30.1004 20.9904 30.1753C20.2839 30.5482 19.6823 31.0926 19.241 31.7585C18.7996 32.4244 18.5326 33.1905 18.4644 33.9865C18.1696 37.0301 19.5692 39.4301 21.4948 41.8381C22.7306 40.4854 23.6662 38.8865 24.24 37.1465Z" fill="url(#paint11_linear_1_3475)"/>
<path opacity="0.65" d="M28.08 35.9248C28.2005 34.339 27.7593 32.7613 26.8336 31.468C26.159 30.58 25.1836 29.9685 24.0904 29.748C23.9203 29.7254 23.7473 29.7391 23.5828 29.7883C23.4184 29.8374 23.2662 29.9209 23.1364 30.0332C22.5505 30.5762 22.1103 31.2577 21.8564 32.0151C21.6024 32.7725 21.5427 33.5816 21.6828 34.368C22.1856 37.384 24.1588 39.34 26.6428 41.168C27.4864 39.5413 27.9762 37.7544 28.08 35.9248Z" fill="url(#paint12_linear_1_3475)"/>
<path opacity="0.65" d="M31.4732 33.7508C31.1793 32.1878 30.3449 30.778 29.116 29.7684C28.2346 29.0848 27.1341 28.7462 26.0208 28.816C25.8506 28.8382 25.6871 28.8962 25.541 28.9862C25.3949 29.0763 25.2695 29.1963 25.1732 29.3384C24.7478 30.0146 24.499 30.7868 24.4498 31.5842C24.4005 32.3816 24.5523 33.1786 24.8912 33.902C26.1576 36.6852 28.5712 38.062 31.4412 39.1868C31.8353 37.3973 31.8462 35.5448 31.4732 33.7508Z" fill="url(#paint13_linear_1_3475)"/>
<path opacity="0.65" d="M34.1884 30.7729C33.4997 29.3391 32.3285 28.1932 30.88 27.5361C29.8518 27.1036 28.7013 27.061 27.644 27.4161C27.4853 27.4816 27.3424 27.58 27.2247 27.7048C27.1069 27.8296 27.017 27.978 26.9608 28.1401C26.725 28.9032 26.6846 29.7133 26.8433 30.496C27.002 31.2788 27.3548 32.0091 27.8692 32.6201C29.8128 34.9801 32.4996 35.6881 35.564 36.0293C35.4812 34.1998 35.0124 32.4084 34.1884 30.7729Z" fill="url(#paint14_linear_1_3475)"/>
<path opacity="0.65" d="M36.04 27.1932C35.0039 25.9865 33.5763 25.1828 32.0072 24.9228C30.9022 24.7716 29.7799 25.0286 28.8508 25.6456C28.7145 25.7499 28.6018 25.882 28.5203 26.0331C28.4388 26.1841 28.3903 26.3508 28.378 26.522C28.3475 27.3205 28.5181 28.1138 28.8741 28.8291C29.2302 29.5445 29.7602 30.1589 30.4156 30.616C32.904 32.3932 35.6824 32.3808 38.7304 31.9176C38.177 30.1706 37.2601 28.5605 36.04 27.1932Z" fill="url(#paint15_linear_1_3475)"/>
<path opacity="0.65" d="M36.9028 23.256C35.5897 22.3587 34.0028 21.9519 32.42 22.1068C31.3134 22.2468 30.2958 22.7855 29.558 23.622C29.4534 23.7581 29.3788 23.9148 29.3392 24.0818C29.2996 24.2488 29.2959 24.4223 29.3284 24.5908C29.5058 25.3695 29.8759 26.0911 30.4048 26.6896C30.9336 27.288 31.6043 27.7441 32.3552 28.016C35.2184 29.0884 37.8992 28.3576 40.7236 27.1212C39.7368 25.5778 38.4347 24.2605 36.9028 23.256Z" fill="url(#paint16_linear_1_3475)"/>
<path opacity="0.65" d="M36.7168 19.2305C35.2162 18.7036 33.578 18.7214 32.0892 19.2809C31.0565 19.7025 30.213 20.4862 29.7168 21.4853C29.6509 21.6437 29.6194 21.8144 29.6244 21.986C29.6294 22.1575 29.6707 22.3261 29.7456 22.4805C30.1184 23.187 30.6628 23.7885 31.3286 24.2298C31.9945 24.6712 32.7605 24.9382 33.5564 25.0065C36.6 25.3013 39 23.9017 41.4084 21.9761C40.0557 20.7402 38.4568 19.8045 36.7168 19.2305Z" fill="url(#paint17_linear_1_3475)"/>
<path opacity="0.65" d="M35.4952 15.3901C33.9099 15.27 32.3328 15.7112 31.04 16.6365C30.152 17.3112 29.5405 18.2865 29.32 19.3797C29.2974 19.5499 29.3112 19.7229 29.3604 19.8874C29.4096 20.0518 29.4932 20.2039 29.6056 20.3337C30.1486 20.9196 30.8301 21.3598 31.5875 21.6138C32.3449 21.8677 33.1539 21.9274 33.9404 21.7873C36.9564 21.2845 38.9124 19.3113 40.7404 16.8273C39.113 15.9834 37.3254 15.4936 35.4952 15.3901Z" fill="url(#paint18_linear_1_3475)"/>
<path opacity="0.65" d="M33.32 11.9964C31.757 12.2904 30.3473 13.1248 29.3376 14.3536C28.654 15.235 28.3154 16.3355 28.3852 17.4488C28.4076 17.619 28.4658 17.7826 28.5561 17.9286C28.6463 18.0746 28.7666 18.1999 28.9088 18.296C29.585 18.7214 30.3572 18.9702 31.1546 19.0195C31.952 19.0688 32.749 18.917 33.4724 18.578C36.2556 17.3116 37.6324 14.898 38.7572 12.028C36.9673 11.6339 35.1143 11.6232 33.32 11.9964Z" fill="url(#paint19_linear_1_3475)"/>
<path opacity="0.65" d="M30.3429 9.28127C28.9091 9.96972 27.7633 11.1406 27.1061 12.5889C26.6736 13.617 26.6309 14.7675 26.9861 15.8249C27.0515 15.9836 27.1499 16.1265 27.2747 16.2444C27.3995 16.3622 27.5479 16.4522 27.7101 16.5085C28.4731 16.7443 29.2832 16.7846 30.066 16.6259C30.8487 16.4672 31.5791 16.1145 32.1901 15.6001C34.5501 13.6565 35.2581 10.9697 35.5993 7.90527C33.7697 7.98817 31.9784 8.4571 30.3429 9.28127Z" fill="url(#paint20_linear_1_3475)"/>
<path opacity="0.65" d="M26.7636 7.42961C25.5569 8.4657 24.7532 9.89331 24.4932 11.4624C24.3421 12.5674 24.599 13.6897 25.216 14.6188C25.3204 14.7551 25.4524 14.8678 25.6035 14.9493C25.7546 15.0308 25.9212 15.0793 26.0924 15.0916C26.8906 15.1222 27.6836 14.9518 28.3988 14.5961C29.114 14.2405 29.7284 13.7109 30.1856 13.056C31.9628 10.5676 31.9504 7.78921 31.4872 4.74121C29.7407 5.29414 28.1309 6.21033 26.7636 7.42961Z" fill="url(#paint21_linear_1_3475)"/>
<path opacity="0.65" d="M22.8268 6.56726C21.9295 7.88032 21.5227 9.46722 21.6776 11.0501C21.8175 12.1567 22.3563 13.1743 23.1928 13.9121C23.3289 14.0167 23.4856 14.0914 23.6526 14.131C23.8196 14.1707 23.9931 14.1744 24.1616 14.1421C24.9406 13.9648 25.6625 13.5947 26.2612 13.0658C26.8599 12.5368 27.3161 11.866 27.588 11.1149C28.6604 8.25126 27.9296 5.57086 26.6932 2.74646C25.1493 3.73305 23.8317 5.03517 22.8268 6.56726Z" fill="url(#paint22_linear_1_3475)"/>
<path opacity="0.65" d="M18.8 6.75325C18.2732 8.25388 18.291 9.89204 18.8504 11.3808C19.272 12.4136 20.0558 13.2571 21.0548 13.7532C21.2133 13.8191 21.384 13.8506 21.5555 13.8456C21.7271 13.8407 21.8956 13.7994 22.05 13.7244C22.7566 13.3516 23.3581 12.8072 23.7995 12.1413C24.2409 11.4753 24.5079 10.7092 24.576 9.91324C24.8716 6.86965 23.472 4.46965 21.5464 2.06165C20.3103 3.41425 19.3743 5.01314 18.8 6.75325Z" fill="url(#paint23_linear_1_3475)"/>
</g>
</g>
<defs>
<linearGradient id="paint0_linear_1_3475" x1="1.52004" y1="42.056" x2="41.52" y2="2.05598" gradientUnits="userSpaceOnUse">
<stop stop-color="#0A00B2"/>
<stop offset="0.5" stop-color="#FF0000"/>
<stop offset="1" stop-color="#FFFC00"/>
</linearGradient>
<linearGradient id="paint1_linear_1_3475" x1="1.51998" y1="42.0561" x2="41.52" y2="2.05609" gradientUnits="userSpaceOnUse">
<stop stop-color="#0A00B2"/>
<stop offset="0.5" stop-color="#FF0000"/>
<stop offset="1" stop-color="#FFFC00"/>
</linearGradient>
<linearGradient id="paint2_linear_1_3475" x1="1.52004" y1="42.0561" x2="41.52" y2="2.05609" gradientUnits="userSpaceOnUse">
<stop stop-color="#0A00B2"/>
<stop offset="0.5" stop-color="#FF0000"/>
<stop offset="1" stop-color="#FFFC00"/>
</linearGradient>
<linearGradient id="paint3_linear_1_3475" x1="1.51997" y1="42.0561" x2="41.52" y2="2.05608" gradientUnits="userSpaceOnUse">
<stop stop-color="#0A00B2"/>
<stop offset="0.5" stop-color="#FF0000"/>
<stop offset="1" stop-color="#FFFC00"/>
</linearGradient>
<linearGradient id="paint4_linear_1_3475" x1="1.52004" y1="42.0561" x2="41.52" y2="2.05609" gradientUnits="userSpaceOnUse">
<stop stop-color="#0A00B2"/>
<stop offset="0.5" stop-color="#FF0000"/>
<stop offset="1" stop-color="#FFFC00"/>
</linearGradient>
<linearGradient id="paint5_linear_1_3475" x1="1.51999" y1="42.0561" x2="41.52" y2="2.05608" gradientUnits="userSpaceOnUse">
<stop stop-color="#0A00B2"/>
<stop offset="0.5" stop-color="#FF0000"/>
<stop offset="1" stop-color="#FFFC00"/>
</linearGradient>
<linearGradient id="paint6_linear_1_3475" x1="1.52005" y1="42.0561" x2="41.5201" y2="2.05611" gradientUnits="userSpaceOnUse">
<stop stop-color="#0A00B2"/>
<stop offset="0.5" stop-color="#FF0000"/>
<stop offset="1" stop-color="#FFFC00"/>
</linearGradient>
<linearGradient id="paint7_linear_1_3475" x1="1.51994" y1="42.056" x2="41.5199" y2="2.05604" gradientUnits="userSpaceOnUse">
<stop stop-color="#0A00B2"/>
<stop offset="0.5" stop-color="#FF0000"/>
<stop offset="1" stop-color="#FFFC00"/>
</linearGradient>
<linearGradient id="paint8_linear_1_3475" x1="1.52" y1="42.0561" x2="41.52" y2="2.0561" gradientUnits="userSpaceOnUse">
<stop stop-color="#0A00B2"/>
<stop offset="0.5" stop-color="#FF0000"/>
<stop offset="1" stop-color="#FFFC00"/>
</linearGradient>
<linearGradient id="paint9_linear_1_3475" x1="1.52002" y1="42.056" x2="41.52" y2="2.05601" gradientUnits="userSpaceOnUse">
<stop stop-color="#0A00B2"/>
<stop offset="0.5" stop-color="#FF0000"/>
<stop offset="1" stop-color="#FFFC00"/>
</linearGradient>
<linearGradient id="paint10_linear_1_3475" x1="1.52" y1="42.056" x2="41.52" y2="2.05602" gradientUnits="userSpaceOnUse">
<stop stop-color="#0A00B2"/>
<stop offset="0.5" stop-color="#FF0000"/>
<stop offset="1" stop-color="#FFFC00"/>
</linearGradient>
<linearGradient id="paint11_linear_1_3475" x1="1.52005" y1="42.0561" x2="41.5201" y2="2.0561" gradientUnits="userSpaceOnUse">
<stop stop-color="#0A00B2"/>
<stop offset="0.5" stop-color="#FF0000"/>
<stop offset="1" stop-color="#FFFC00"/>
</linearGradient>
<linearGradient id="paint12_linear_1_3475" x1="1.52001" y1="42.056" x2="41.52" y2="2.05603" gradientUnits="userSpaceOnUse">
<stop stop-color="#0A00B2"/>
<stop offset="0.5" stop-color="#FF0000"/>
<stop offset="1" stop-color="#FFFC00"/>
</linearGradient>
<linearGradient id="paint13_linear_1_3475" x1="1.52004" y1="42.056" x2="41.52" y2="2.056" gradientUnits="userSpaceOnUse">
<stop stop-color="#0A00B2"/>
<stop offset="0.5" stop-color="#FF0000"/>
<stop offset="1" stop-color="#FFFC00"/>
</linearGradient>
<linearGradient id="paint14_linear_1_3475" x1="1.51995" y1="42.0561" x2="41.5199" y2="2.0561" gradientUnits="userSpaceOnUse">
<stop stop-color="#0A00B2"/>
<stop offset="0.5" stop-color="#FF0000"/>
<stop offset="1" stop-color="#FFFC00"/>
</linearGradient>
<linearGradient id="paint15_linear_1_3475" x1="1.51998" y1="42.056" x2="41.52" y2="2.05599" gradientUnits="userSpaceOnUse">
<stop stop-color="#0A00B2"/>
<stop offset="0.5" stop-color="#FF0000"/>
<stop offset="1" stop-color="#FFFC00"/>
</linearGradient>
<linearGradient id="paint16_linear_1_3475" x1="1.51998" y1="42.056" x2="41.52" y2="2.05603" gradientUnits="userSpaceOnUse">
<stop stop-color="#0A00B2"/>
<stop offset="0.5" stop-color="#FF0000"/>
<stop offset="1" stop-color="#FFFC00"/>
</linearGradient>
<linearGradient id="paint17_linear_1_3475" x1="1.52" y1="42.0561" x2="41.52" y2="2.05606" gradientUnits="userSpaceOnUse">
<stop stop-color="#0A00B2"/>
<stop offset="0.5" stop-color="#FF0000"/>
<stop offset="1" stop-color="#FFFC00"/>
</linearGradient>
<linearGradient id="paint18_linear_1_3475" x1="1.52001" y1="42.0561" x2="41.52" y2="2.0561" gradientUnits="userSpaceOnUse">
<stop stop-color="#0A00B2"/>
<stop offset="0.5" stop-color="#FF0000"/>
<stop offset="1" stop-color="#FFFC00"/>
</linearGradient>
<linearGradient id="paint19_linear_1_3475" x1="1.52001" y1="42.056" x2="41.52" y2="2.05599" gradientUnits="userSpaceOnUse">
<stop stop-color="#0A00B2"/>
<stop offset="0.5" stop-color="#FF0000"/>
<stop offset="1" stop-color="#FFFC00"/>
</linearGradient>
<linearGradient id="paint20_linear_1_3475" x1="1.52006" y1="42.0561" x2="41.5201" y2="2.05608" gradientUnits="userSpaceOnUse">
<stop stop-color="#0A00B2"/>
<stop offset="0.5" stop-color="#FF0000"/>
<stop offset="1" stop-color="#FFFC00"/>
</linearGradient>
<linearGradient id="paint21_linear_1_3475" x1="1.52004" y1="42.056" x2="41.52" y2="2.05601" gradientUnits="userSpaceOnUse">
<stop stop-color="#0A00B2"/>
<stop offset="0.5" stop-color="#FF0000"/>
<stop offset="1" stop-color="#FFFC00"/>
</linearGradient>
<linearGradient id="paint22_linear_1_3475" x1="1.52004" y1="42.0561" x2="41.52" y2="2.05606" gradientUnits="userSpaceOnUse">
<stop stop-color="#0A00B2"/>
<stop offset="0.5" stop-color="#FF0000"/>
<stop offset="1" stop-color="#FFFC00"/>
</linearGradient>
<linearGradient id="paint23_linear_1_3475" x1="1.52005" y1="42.056" x2="41.52" y2="2.05605" gradientUnits="userSpaceOnUse">
<stop stop-color="#0A00B2"/>
<stop offset="0.5" stop-color="#FF0000"/>
<stop offset="1" stop-color="#FFFC00"/>
</linearGradient>
<clipPath id="clip0_1_3475">
<rect width="42" height="42" fill="white" transform="translate(0.52002 0.950073)"/>
</clipPath>
<clipPath id="clip1_1_3475">
<rect width="176" height="811" fill="white" transform="translate(0.52002 -46.0499)"/>
</clipPath>
</defs>
</svg>
