<svg width="43" height="43" viewBox="0 0 43 43" fill="none" xmlns="http://www.w3.org/2000/svg">
<g clip-path="url(#clip0_1_1205)">
<g clip-path="url(#clip1_1_1205)">
<g clip-path="url(#clip2_1_1205)">
<mask id="mask0_1_1205" style="mask-type:luminance" maskUnits="userSpaceOnUse" x="0" y="-1" width="43" height="44">
<path d="M0.350922 -0.359863L19.6316 18.9208V33.7805H22.9883V18.9208L42.2691 -0.359863V42.9091H0.350922" fill="white"/>
</mask>
<g mask="url(#mask0_1_1205)">
<path d="M21.2691 10.1606C18.1459 10.1715 15.1546 11.4212 12.9519 13.6354C10.7492 15.8496 9.51512 18.8473 9.52054 21.9705C9.52596 25.0937 10.7705 28.0872 12.9808 30.2937C15.1912 32.5002 18.1868 33.7395 21.31 33.7395C24.4332 33.7395 27.4288 32.5002 29.6392 30.2937C31.8495 28.0872 33.094 25.0937 33.0995 21.9705C33.1049 18.8473 31.8708 15.8496 29.6681 13.6354C27.4654 11.4212 24.4741 10.1715 21.3509 10.1606" fill="black"/>
<path d="M21.2691 5.1665C16.8213 5.17735 12.5598 6.95321 9.42049 10.104C6.28121 13.2548 4.52096 17.5228 4.52638 21.9705C4.5318 26.4183 6.30247 30.682 9.44942 33.8251C12.5964 36.9682 16.8622 38.7337 21.31 38.7337C25.7577 38.7337 30.0236 36.9682 33.1706 33.8251C36.3175 30.682 38.0882 26.4183 38.0936 21.9705C38.099 17.5228 36.3388 13.2548 33.1995 10.104C30.0602 6.95321 25.7987 5.17735 21.3509 5.1665" stroke="black" stroke-width="4.74854"/>
</g>
<path d="M21.269 2.13721C19.5573 2.14804 17.9196 2.83704 16.7149 4.05322C15.5102 5.2694 14.8368 6.91356 14.8422 8.62538C14.8476 10.3372 15.5314 11.9771 16.7438 13.1856C17.9561 14.3941 19.5982 15.0727 21.31 15.0727C23.0218 15.0727 24.6638 14.3941 25.8762 13.1856C27.0886 11.9771 27.7724 10.3372 27.7778 8.62538C27.7832 6.91356 27.1098 5.2694 25.9051 4.05322C24.7004 2.83704 23.0627 2.14804 21.3509 2.13721H21.269Z" fill="black"/>
</g>
</g>
</g>
<defs>
<clipPath id="clip0_1_1205">
<rect width="42" height="42" fill="white" transform="translate(0.309982 0.950073)"/>
</clipPath>
<clipPath id="clip1_1_1205">
<rect width="176" height="811" fill="white" transform="translate(0.309982 -261.05)"/>
</clipPath>
<clipPath id="clip2_1_1205">
<rect width="42" height="42" fill="white" transform="translate(0.309982 0.950073)"/>
</clipPath>
</defs>
</svg>
