<svg width="51" height="51" viewBox="0 0 51 51" fill="none" xmlns="http://www.w3.org/2000/svg">
<g clip-path="url(#clip0_1_4090)">
<g clip-path="url(#clip1_1_4090)">
<path fill-rule="evenodd" clip-rule="evenodd" d="M36.9723 20.0612C36.6413 20.0612 36.268 20.0815 35.8522 20.1221C35.5012 20.1627 35.1482 20.1843 34.7948 20.1866C34.5056 20.1866 34.145 20.1657 33.7165 20.1221C33.2514 20.0821 32.8455 20.0629 32.5145 20.0612C32.3891 20.0612 32.3281 20.157 32.3281 20.3521C32.3281 20.5472 32.3682 20.6412 32.4518 20.6412C33.3786 20.6848 33.8454 21.0419 33.8454 21.7213C33.837 22.0424 33.7666 22.3589 33.6381 22.6533L30.8074 29.2363L31.2673 30.2693L34.6119 22.7351C34.9603 21.9477 35.2913 21.4129 35.617 21.1342C35.9725 20.8415 36.4116 20.6689 36.8713 20.6412C36.9065 20.6395 36.9407 20.6292 36.971 20.6113C37.0014 20.5934 37.0269 20.5684 37.0455 20.5385C37.0962 20.4725 37.1237 20.3917 37.1239 20.3085C37.1186 20.143 37.0699 20.0612 36.9723 20.0612Z" fill="#006699"/>
<path fill-rule="evenodd" clip-rule="evenodd" d="M26.8966 20.6412C27.8257 20.6854 28.2902 21.0239 28.2902 21.6568C28.266 22.0089 28.1592 22.3503 27.9784 22.6533L27.9209 22.7595L28.3825 23.7925L28.9539 22.7351C29.444 21.8781 29.8504 21.3288 30.1733 21.0872C30.5601 20.8263 31.009 20.6724 31.4746 20.6412C31.6261 20.6412 31.7028 20.5298 31.7028 20.3085C31.7028 20.1343 31.661 20.0612 31.5791 20.0612C31.2307 20.0612 30.7865 20.0855 30.2621 20.1326C29.8475 20.1674 29.5322 20.1866 29.3197 20.1866C29.0212 20.1866 28.6409 20.1651 28.1787 20.1221C27.6944 20.0821 27.2885 20.0629 26.9593 20.0612C26.9192 20.0612 26.8774 20.0925 26.8356 20.1552C26.7953 20.213 26.7734 20.2816 26.7729 20.3521C26.7694 20.542 26.8112 20.6412 26.8966 20.6412Z" fill="#006699"/>
<path fill-rule="evenodd" clip-rule="evenodd" d="M21.6061 29.2136L18.5907 22.4041C18.4913 22.2106 18.432 21.9991 18.4165 21.7822C18.4137 21.6279 18.4488 21.4753 18.5186 21.3378C18.5885 21.2002 18.691 21.0818 18.8171 20.9931C19.1414 20.7756 19.5208 20.6548 19.9111 20.6447C19.9791 20.6447 20.0139 20.5489 20.0139 20.3555C20.0139 20.1621 19.9581 20.0646 19.8397 20.0646C19.3781 20.0646 18.845 20.0855 18.244 20.1255C17.6709 20.1691 17.1727 20.1917 16.7494 20.19C16.3261 20.1883 15.8784 20.1674 15.4237 20.1255C14.9185 20.0855 14.4343 20.0663 13.9709 20.0646C13.8611 20.0646 13.7967 20.1604 13.7967 20.3555C13.7952 20.4291 13.8213 20.5005 13.8699 20.5558C13.8875 20.5816 13.9108 20.6029 13.938 20.6183C13.9652 20.6337 13.9955 20.6427 14.0266 20.6447C14.5693 20.6778 15.0908 20.8671 15.5282 21.1899C15.8883 21.4826 16.2303 21.9988 16.5543 22.7385L20.3727 31.4956L21.6061 29.2136Z" fill="#006699"/>
<path d="M29.4242 34.6017C29.4442 34.6522 29.4786 34.6957 29.5233 34.7267C29.5679 34.7577 29.6207 34.7748 29.6751 34.7759H31.9484C32.0195 34.7759 32.0878 34.7476 32.1381 34.6973C32.1884 34.647 32.2167 34.5787 32.2167 34.5076C32.2165 34.4691 32.2082 34.4311 32.1923 34.3961L26.6388 21.9356C26.4656 21.5553 26.2228 21.2109 25.9228 20.92C25.6077 20.6294 25.2307 20.4143 24.8201 20.2911C24.2491 20.1304 23.6572 20.0565 23.0642 20.0716C22.37 20.0706 21.6794 20.1704 21.0139 20.3678C20.952 20.3874 20.8993 20.4287 20.8654 20.4841C20.8315 20.5394 20.8186 20.6051 20.8292 20.6691L21.148 22.5993C21.1576 22.6618 21.1892 22.7188 21.2371 22.76C21.285 22.8012 21.3461 22.8239 21.4093 22.824C21.439 22.8226 21.4684 22.8167 21.4964 22.8066C21.8572 22.6879 22.235 22.6291 22.6148 22.6324C22.8954 22.624 23.1755 22.6617 23.444 22.7439C23.6456 22.8086 23.8293 22.9195 23.9805 23.0679C24.127 23.2198 24.245 23.3968 24.3289 23.5905C24.4247 23.7943 24.5257 24.0312 24.632 24.2873L24.8567 24.8569L19.7858 34.4083C19.7611 34.476 19.7642 34.5507 19.7946 34.616C19.825 34.6814 19.8801 34.732 19.9478 34.7567C19.9768 34.7672 20.0075 34.7725 20.0383 34.7724H22.7245C22.7767 34.7728 22.8278 34.7579 22.8715 34.7294C22.9152 34.7008 22.9495 34.6601 22.9701 34.6121L22.9858 34.5825L26.4001 28.273L29.4242 34.6017Z" fill="#339966"/>
<path d="M12.9727 16.3489C14.4347 14.4327 16.3179 12.8784 18.4765 11.8061C20.6352 10.7339 23.0115 10.1724 25.4218 10.1652C27.832 10.1579 30.2117 10.7051 32.3767 11.7644C34.5418 12.8236 36.4342 14.3666 37.9077 16.274L41.4475 13.8962C39.5784 11.4055 37.1529 9.38629 34.3647 7.99967C31.5764 6.61304 28.5026 5.89743 25.3887 5.90995C22.2747 5.92248 19.2068 6.66279 16.4298 8.0718C13.6528 9.4808 11.2437 11.5195 9.39465 14.0251L12.9727 16.3489Z" fill="#990000"/>
<path d="M40.0435 19.9635C40.8161 21.8499 41.2131 23.8688 41.2123 25.9073C41.2123 34.5894 34.1503 41.749 25.4681 41.749C16.786 41.749 9.72569 34.5894 9.72569 25.9073C9.72388 23.9003 10.1089 21.9118 10.8597 20.0506L7.23463 17.6972C6.06791 20.2768 5.46624 23.0761 5.46999 25.9073C5.46999 36.9359 14.4413 46.0047 25.4681 46.0047C36.495 46.0047 45.4681 36.9359 45.4681 25.9073C45.4714 23.0201 44.846 20.1668 43.6355 17.5457L40.0435 19.9635Z" fill="#006699"/>
</g>
</g>
<defs>
<clipPath id="clip0_1_4090">
<rect width="50" height="50" fill="white" transform="translate(0.52002 0.950073)"/>
</clipPath>
<clipPath id="clip1_1_4090">
<rect width="176" height="811" fill="white" transform="translate(0.52002 -211.05)"/>
</clipPath>
</defs>
</svg>
