<svg width="23" height="23" viewBox="0 0 23 23" fill="none" xmlns="http://www.w3.org/2000/svg">
<g clip-path="url(#clip0_1_799)">
<g clip-path="url(#clip1_1_799)">
<path fill-rule="evenodd" clip-rule="evenodd" d="M21.15 19.26H19.71C19.5667 19.2683 19.425 19.2258 19.31 19.14C19.2094 19.0567 19.1305 18.9504 19.08 18.83L18.15 16.26H13.15L12.15 18.8C12.1023 18.9165 12.0267 19.0195 11.93 19.1C11.8186 19.1946 11.676 19.2445 11.53 19.24H10.15L14.7 7.77001H16.59L21.15 19.26ZM17.62 14.95L16.04 10.76C15.8869 10.3543 15.7567 9.9403 15.65 9.52001C15.59 9.76668 15.5266 9.99668 15.46 10.21L15.27 10.77L13.69 14.96L17.62 14.95ZM11.32 13.37C10.2967 13.0189 9.31963 12.5455 8.40996 11.96C9.81157 10.4546 10.7822 8.59975 11.22 6.59001H13.15V5.26001H8.45996C8.40728 5.06864 8.34043 4.88146 8.25996 4.70001C8.01996 4.05001 7.74996 3.26001 7.74996 3.26001L6.27996 3.76001C6.27996 3.76001 6.67996 4.65001 6.87996 5.26001H1.14996V6.59001H3.29996C3.73817 8.608 4.7243 10.4661 6.14996 11.96C4.60491 12.9202 2.91725 13.629 1.14996 14.06C1.5233 14.6067 1.8133 15.0667 2.01996 15.44C3.85767 14.8239 5.61124 13.9807 7.23996 12.93C8.3465 13.669 9.54283 14.2639 10.8 14.7L11.32 13.37ZM4.77996 6.59001H9.68996C9.37091 8.29744 8.5121 9.85732 7.23996 11.04C6.01424 9.82022 5.161 8.27676 4.77996 6.59001Z" fill="#3366DD"/>
</g>
</g>
<defs>
<clipPath id="clip0_1_799">
<rect width="22" height="22" fill="white" transform="translate(0.149963 0.26001)"/>
</clipPath>
<clipPath id="clip1_1_799">
<rect width="176" height="811" fill="white" transform="translate(0.149963 -666.74)"/>
</clipPath>
</defs>
</svg>
