<svg width="125" height="39" viewBox="0 0 125 39" fill="none" xmlns="http://www.w3.org/2000/svg">
<g clip-path="url(#clip0_1_1424)">
<g clip-path="url(#clip1_1_1424)">
<g clip-path="url(#clip2_1_1424)">
<path d="M119.084 37.7195H5.5357C3.0373 37.7195 0.994026 35.6755 0.994026 33.1771V5.9264C0.994026 3.42665 3.03798 1.38269 5.5357 1.38269H119.084C121.583 1.38269 123.627 3.42665 123.627 5.92436V33.1771C123.627 35.6748 121.583 37.7195 119.084 37.7195Z" fill="#100F0D"/>
<path d="M119.084 1.38342H5.5357C3.0373 1.38342 0.994026 3.42738 0.994026 5.92577V33.1772C0.994026 35.6756 3.03798 37.7195 5.5357 37.7195H119.084C121.583 37.7195 123.627 35.6756 123.627 33.1772V5.92646C123.627 3.42806 121.583 1.3841 119.084 1.3841V1.38342ZM119.084 2.10971C121.188 2.10971 122.9 3.82186 122.9 5.92509V33.1778C122.9 35.2811 121.188 36.9932 119.084 36.9932H5.5357C4.52413 36.9921 3.5543 36.5898 2.83901 35.8745C2.12372 35.1592 1.72139 34.1894 1.72031 33.1778V5.92509C1.72031 3.82186 3.43178 2.10971 5.5357 2.10971H119.084Z" fill="#A2A2A1"/>
<path d="M98.1337 28.6354H99.8288V17.2785H98.1337V28.6354ZM113.401 21.3699L111.458 26.2931H111.4L109.384 21.3699H107.558L110.583 28.2512L108.858 32.0795H110.626L115.286 21.3699H113.401ZM103.788 27.345C103.234 27.345 102.459 27.0677 102.459 26.381C102.459 25.5048 103.423 25.1682 104.256 25.1682C105.001 25.1682 105.352 25.329 105.805 25.5484C105.742 26.0411 105.504 26.4946 105.133 26.825C104.762 27.1554 104.285 27.3397 103.788 27.345ZM103.993 21.1212C102.766 21.1212 101.495 21.6621 100.969 22.8606L102.474 23.4881C102.795 22.8606 103.394 22.6562 104.022 22.6562C104.899 22.6562 105.79 23.1808 105.805 24.1169V24.2334C105.498 24.0583 104.84 23.7954 104.037 23.7954C102.414 23.7954 100.764 24.6865 100.764 26.3517C100.764 27.871 102.094 28.8501 103.584 28.8501C104.723 28.8501 105.352 28.3391 105.745 27.7395H105.805V28.617H107.442V24.2627C107.442 22.246 105.935 21.1212 103.993 21.1212ZM93.5171 22.7523H91.1066V18.8599H93.5171C94.7844 18.8599 95.5038 19.9091 95.5038 20.8057C95.5038 21.686 94.7844 22.7523 93.5171 22.7523ZM93.4735 17.2785H89.4122V28.6361H91.1066V24.3336H93.4735C95.3526 24.3336 97.1989 22.9737 97.1989 20.8064C97.1989 18.6398 95.3526 17.2792 93.4735 17.2792V17.2785ZM71.3259 27.3478C70.1554 27.3478 69.1749 26.3667 69.1749 25.021C69.1749 23.6598 70.1554 22.665 71.3259 22.665C72.4821 22.665 73.3896 23.6598 73.3896 25.021C73.3896 26.3673 72.4821 27.3478 71.3259 27.3478ZM73.2724 22.0062H73.2138C72.8336 21.5525 72.1012 21.143 71.1801 21.143C69.2478 21.143 67.4771 22.8408 67.4771 25.021C67.4771 27.187 69.2478 28.8705 71.1801 28.8705C72.1012 28.8705 72.8336 28.4603 73.2138 27.9916H73.2724V28.5476C73.2724 30.026 72.4821 30.8163 71.2087 30.8163C70.1704 30.8163 69.5258 30.0703 69.2628 29.4408L67.7844 30.0553C68.2088 31.0793 69.3357 32.3384 71.2094 32.3384C73.1995 32.3384 74.883 31.1672 74.883 28.3132V21.3774H73.2724V22.0062ZM76.0535 28.6354H77.75V17.2779H76.0535V28.6354ZM80.2532 24.8896C80.2096 23.3968 81.4101 22.6358 82.2733 22.6358C82.9464 22.6358 83.5167 22.9723 83.7075 23.4547L80.2532 24.8896ZM85.5218 23.6019C85.1996 22.7379 84.2191 21.1423 82.2147 21.1423C80.2239 21.1423 78.5697 22.7093 78.5697 25.0067C78.5697 27.1727 80.2096 28.8698 82.4041 28.8698C84.1755 28.8698 85.2002 27.7872 85.6247 27.1577L84.3077 26.2794C83.8683 26.924 83.2687 27.3484 82.4041 27.3484C81.5416 27.3484 80.9263 26.9533 80.5319 26.1766L85.6976 24.0406L85.5218 23.6019ZM44.3634 22.3278V23.9677H48.2857C48.1685 24.8896 47.8613 25.562 47.3932 26.0308C46.8222 26.6017 45.9297 27.2312 44.364 27.2312C41.9488 27.2312 40.0615 25.2847 40.0615 22.8701C40.0615 20.4555 41.9488 18.5083 44.364 18.5083C45.6667 18.5083 46.6172 19.0207 47.3203 19.6795L48.4765 18.5233C47.4954 17.5865 46.1934 16.8698 44.364 16.8698C41.0562 16.8698 38.2751 19.5623 38.2751 22.8701C38.2751 26.1772 41.0562 28.8698 44.364 28.8698C46.1491 28.8698 47.4954 28.2846 48.5494 27.187C49.6327 26.1037 49.9693 24.5823 49.9693 23.3525C49.9693 22.9723 49.9393 22.6214 49.8807 22.3285L44.3634 22.3278ZM54.4285 27.3478C53.2573 27.3478 52.2476 26.3823 52.2476 25.0067C52.2476 23.6162 53.2573 22.665 54.4278 22.665C55.599 22.665 56.6087 23.6162 56.6087 25.0067C56.6087 26.3823 55.599 27.3478 54.4285 27.3478ZM54.4285 21.143C52.2912 21.143 50.5497 22.7672 50.5497 25.0061C50.5497 27.2312 52.2912 28.8698 54.4285 28.8698C56.5651 28.8698 58.3066 27.2312 58.3066 25.0067C58.3066 22.7672 56.5651 21.143 54.4285 21.143ZM62.8884 27.3478C61.7179 27.3478 60.7082 26.3823 60.7082 25.0067C60.7082 23.6162 61.7179 22.665 62.8884 22.665C64.0596 22.665 65.0686 23.6162 65.0686 25.0067C65.0686 26.3823 64.0596 27.3478 62.8884 27.3478ZM62.8884 21.143C60.7518 21.143 59.0104 22.7672 59.0104 25.0061C59.0104 27.2312 60.7518 28.8698 62.8884 28.8698C65.0257 28.8698 66.7672 27.2312 66.7672 25.0067C66.7672 22.7672 65.0257 21.143 62.8884 21.143Z" fill="white"/>
<path d="M19.8107 19.0282L10.14 29.2929L10.1414 29.2991C10.2455 29.688 10.438 30.0475 10.704 30.3497C10.97 30.6519 11.3023 30.8884 11.6748 31.0409C12.0474 31.1934 12.4502 31.2577 12.8517 31.2288C13.2532 31.1999 13.6426 31.0786 13.9895 30.8743L14.0208 30.8566L24.9069 24.5748L19.8107 19.0282Z" fill="#EB3131"/>
<path d="M29.5951 17.2805L29.5856 17.2737L24.8858 14.5498L19.5913 19.2604L24.9056 24.5734L29.5801 21.8753C29.9947 21.6525 30.3414 21.3217 30.5836 20.9181C30.8258 20.5145 30.9545 20.053 30.9561 19.5823C30.9577 19.1116 30.8322 18.6491 30.5927 18.2439C30.3533 17.8386 30.0089 17.5056 29.5958 17.2798" fill="#F6B60B"/>
<path d="M10.1387 9.81055C10.0808 10.0252 10.0501 10.2493 10.0501 10.483V28.6218C10.0501 28.8541 10.0801 29.0796 10.1387 29.2929L20.1438 19.2911L10.1394 9.81055" fill="#5778C5"/>
<path d="M19.8822 19.5521L24.8879 14.5478L14.014 8.24292C13.6667 8.03466 13.2757 7.90983 12.872 7.87822C12.4682 7.84662 12.0626 7.90911 11.6871 8.06079C11.3116 8.21247 10.9763 8.44919 10.7078 8.75235C10.4392 9.05551 10.2446 9.41683 10.1394 9.80791V9.81064L19.8822 19.5521Z" fill="#3BAD49"/>
<path d="M44.0459 10.2685H41.3955V10.9246H43.3816C43.3271 11.4594 43.1145 11.8798 42.7555 12.185C42.3964 12.4896 41.9379 12.6429 41.3962 12.6429C40.8014 12.6429 40.2973 12.4357 39.8837 12.0242C39.4797 11.6045 39.2739 11.0847 39.2739 10.4585C39.2739 9.8331 39.4797 9.31393 39.8844 8.89288C40.2973 8.48136 40.8014 8.2756 41.3962 8.2756C41.7015 8.2756 41.9924 8.32806 42.2588 8.44321C42.5258 8.55835 42.7398 8.71846 42.9074 8.92422L43.4116 8.42004C43.171 8.15229 42.8702 7.94561 42.534 7.81707C42.1723 7.67244 41.7858 7.59977 41.3962 7.60314C40.6025 7.60314 39.93 7.87839 39.3802 8.42753C38.8311 8.97804 38.5558 9.65663 38.5558 10.4585C38.5558 11.2605 38.8311 11.9404 39.3802 12.4902C39.9293 13.0394 40.6025 13.3146 41.3955 13.3146C42.2288 13.3146 42.8931 13.0476 43.4041 12.5052C43.8537 12.0542 44.084 11.4437 44.084 10.68C44.084 10.5505 44.0684 10.4136 44.0459 10.2685ZM45.0726 7.7251V13.1927H48.2646V12.5209H45.7751V10.7869H48.0207V10.1308H45.7744V8.39756H48.2639V7.72578L45.0726 7.7251ZM52.7409 8.39756V7.72578H48.9834V8.39824H50.5109V13.1934H51.2133V8.39824L52.7409 8.39756ZM56.142 7.7251H55.4402V13.1927H56.142V7.7251ZM60.7797 8.39756V7.72578H57.0223V8.39824H58.5498V13.1934H59.2522V8.39824L60.7797 8.39756ZM67.8695 8.43639C67.3272 7.87771 66.6636 7.60314 65.8692 7.60314C65.0748 7.60314 64.4105 7.87839 63.8682 8.42753C63.3258 8.96986 63.0594 9.64982 63.0594 10.4585C63.0594 11.2673 63.3258 11.9479 63.8682 12.4902C64.4105 13.0394 65.0741 13.3146 65.8692 13.3146C66.6561 13.3146 67.3272 13.0394 67.8695 12.4902C68.4119 11.9479 68.6783 11.268 68.6783 10.4585C68.6783 9.65663 68.4119 8.97804 67.8695 8.43639ZM64.3723 8.89288C64.7764 8.48136 65.2737 8.2756 65.8692 8.2756C66.464 8.2756 66.9613 8.48136 67.3586 8.89288C67.7633 9.29758 67.9615 9.8256 67.9615 10.4585C67.9615 11.0935 67.7633 11.6195 67.3586 12.0242C66.9613 12.4357 66.464 12.6429 65.8692 12.6429C65.2737 12.6429 64.7764 12.4357 64.3723 12.0242C63.9758 11.6113 63.7775 11.0935 63.7775 10.4585C63.7775 9.8256 63.9758 9.30644 64.3723 8.89288ZM70.3475 9.78745L70.3182 8.73277H70.3475L73.1273 13.1927H73.8604V7.7251H73.1586V10.9239L73.1879 11.9786H73.1579L70.5008 7.7251H69.6451V13.1927H70.3475V9.78745Z" fill="white" stroke="white" stroke-width="0.181912" stroke-miterlimit="10"/>
</g>
</g>
</g>
<defs>
<clipPath id="clip0_1_1424">
<rect width="124" height="38" fill="white" transform="translate(0.309982 0.550049)"/>
</clipPath>
<clipPath id="clip1_1_1424">
<rect width="176" height="811" fill="white" transform="translate(0.309982 -590.45)"/>
</clipPath>
<clipPath id="clip2_1_1424">
<rect width="124" height="38" fill="white" transform="translate(0.309982 0.550049)"/>
</clipPath>
</defs>
</svg>
