<svg width="37" height="37" viewBox="0 0 37 37" fill="none" xmlns="http://www.w3.org/2000/svg">
<g clip-path="url(#clip0_1_2234)">
<g clip-path="url(#clip1_1_2234)">
<g clip-path="url(#clip2_1_2234)">
<path d="M17.2872 22.2259L26.1567 35.6579L27.1192 19.592C25.8556 20.8553 24.2818 21.7637 22.556 22.226C20.8301 22.6883 19.013 22.6883 17.2872 22.2259Z" fill="#339966"/>
<path d="M28.1797 15.6386L35.3779 1.24231L20.9816 8.44046C22.7078 8.90313 24.2818 9.81209 25.5454 11.076C26.8089 12.3399 27.7175 13.9141 28.1797 15.6405V15.6386Z" fill="#990000"/>
<path d="M17.0299 9.501L0.962219 10.4635L14.3942 19.333C13.9317 17.6067 13.9317 15.7891 14.3944 14.0629C14.8571 12.3367 15.766 10.7627 17.0299 9.49915V9.501Z" fill="#006699"/>
</g>
</g>
</g>
<defs>
<clipPath id="clip0_1_2234">
<rect width="36" height="36" fill="white" transform="translate(0.170044 0.450073)"/>
</clipPath>
<clipPath id="clip1_1_2234">
<rect width="176" height="811" fill="white" transform="translate(0.170044 -495.55)"/>
</clipPath>
<clipPath id="clip2_1_2234">
<rect width="36" height="36" fill="white" transform="translate(0.170044 0.450073)"/>
</clipPath>
</defs>
</svg>
