<svg width="50" height="50" viewBox="0 0 50 50" fill="none" xmlns="http://www.w3.org/2000/svg">
<g clip-path="url(#clip0_1_2860)">
<g clip-path="url(#clip1_1_2860)">
<path d="M6.15601 37.0945H7.55334V13.8055H6.15601V37.0945ZM8.95068 37.0945H13.1427V13.8055H8.95068V37.0945ZM14.54 13.8055V37.0945H18.7321V13.8055H14.54Z" fill="#990000"/>
<path d="M39.6921 37.0945H41.0895V13.8055H39.6921V37.0945ZM42.4868 13.8055V37.0945H43.8841V13.8055H42.4868ZM20.1294 37.0945H21.5267V13.8055H20.1294V37.0945ZM22.9241 13.8055V37.0945H24.3214V13.8055H22.9241Z" fill="#339966"/>
<path d="M25.7188 37.0945H29.9108V13.8055H25.7188V37.0945ZM31.3081 37.0945H32.7054V13.8055H31.3081V37.0945ZM34.1028 13.8055V37.0945H38.2948V13.8055H34.1028Z" fill="#006699"/>
</g>
</g>
<defs>
<clipPath id="clip0_1_2860">
<rect width="49" height="49" fill="white" transform="translate(0.52002 0.950073)"/>
</clipPath>
<clipPath id="clip1_1_2860">
<rect width="176" height="811" fill="white" transform="translate(0.52002 -162.05)"/>
</clipPath>
</defs>
</svg>
