<svg width="43" height="43" viewBox="0 0 43 43" fill="none" xmlns="http://www.w3.org/2000/svg">
<g clip-path="url(#clip0_1_1824)">
<g clip-path="url(#clip1_1_1824)">
<g clip-path="url(#clip2_1_1824)">
<path opacity="0.2" d="M1.7751 7.29894C1.7751 6.26275 2.18673 5.269 2.91943 4.53629C3.65213 3.80359 4.64588 3.39197 5.68208 3.39197H36.9379C37.9741 3.39197 38.9678 3.80359 39.7005 4.53629C40.4332 5.269 40.8449 6.26275 40.8449 7.29894V38.5548C40.8449 39.591 40.4332 40.5847 39.7005 41.3174C38.9678 42.0501 37.9741 42.4617 36.9379 42.4617H5.68208C4.64588 42.4617 3.65213 42.0501 2.91943 41.3174C2.18673 40.5847 1.7751 39.591 1.7751 38.5548V7.29894Z" fill="black"/>
<path d="M36.933 2.82056H5.68208C3.74818 2.82056 2.18045 4.38829 2.18045 6.32218V37.5731C2.18045 39.507 3.74818 41.0747 5.68208 41.0747H36.933C38.8669 41.0747 40.4346 39.507 40.4346 37.5731V6.32218C40.4346 4.38829 38.8669 2.82056 36.933 2.82056Z" fill="white"/>
<path d="M36.9379 3.23074C37.7574 3.23203 38.5429 3.55815 39.1224 4.13762C39.7019 4.71709 40.028 5.50265 40.0293 6.32214V37.578C40.028 38.3974 39.7019 39.183 39.1224 39.7625C38.5429 40.3419 37.7574 40.6681 36.9379 40.6693H5.68208C4.86259 40.6681 4.07703 40.3419 3.49756 39.7625C2.91809 39.183 2.59197 38.3974 2.59068 37.578V6.32214C2.59197 5.50265 2.91809 4.71709 3.49756 4.13762C4.07703 3.55815 4.86259 3.23203 5.68208 3.23074H36.9379ZM36.9379 2.41516H5.68208C4.64588 2.41516 3.65213 2.82679 2.91943 3.55949C2.18673 4.29219 1.7751 5.28594 1.7751 6.32214V37.578C1.7751 38.6141 2.18673 39.6079 2.91943 40.3406C3.65213 41.0733 4.64588 41.4849 5.68208 41.4849H36.9379C37.9741 41.4849 38.9678 41.0733 39.7005 40.3406C40.4332 39.6079 40.8449 38.6141 40.8449 37.578V6.32214C40.8449 5.28594 40.4332 4.29219 39.7005 3.55949C38.9678 2.82679 37.9741 2.41516 36.9379 2.41516Z" fill="#EAECF0"/>
<path fill-rule="evenodd" clip-rule="evenodd" d="M34.8525 14.434C34.3051 14.4681 33.783 14.677 33.363 15.0298C32.8345 15.5921 32.4273 16.257 32.1665 16.9833L25.886 31.4342C25.8437 31.5677 25.7281 31.6344 25.5393 31.6344C25.4687 31.636 25.399 31.6181 25.3379 31.5828C25.2768 31.5475 25.2265 31.4961 25.1925 31.4342L21.6714 23.9035L17.6179 31.4293C17.5839 31.4912 17.5337 31.5426 17.4725 31.5779C17.4114 31.6132 17.3417 31.6311 17.2711 31.6295C17.1982 31.6383 17.1243 31.6236 17.0602 31.5876C16.9962 31.5516 16.9452 31.4962 16.9146 31.4293L10.7465 16.9735C10.4842 16.2707 10.0688 15.6351 9.53044 15.1128C9.01265 14.7216 8.39078 14.4923 7.743 14.4535C7.70584 14.4513 7.66972 14.4404 7.6375 14.4217C7.60529 14.4031 7.57787 14.3772 7.55742 14.3461C7.50044 14.2775 7.46933 14.191 7.46951 14.1019C7.46951 13.8675 7.53463 13.7502 7.66486 13.7502C8.2151 13.7502 8.78975 13.7747 9.38882 13.8235C9.98789 13.8723 10.5137 13.8968 10.9663 13.8968C11.4677 13.8968 12.0586 13.8723 12.739 13.8235C13.4195 13.7747 14.0511 13.7502 14.6339 13.7502C14.7642 13.7502 14.8293 13.8675 14.8293 14.1019C14.8293 14.3363 14.7886 14.4535 14.7072 14.4535C14.2416 14.4673 13.7901 14.6166 13.4081 14.8833C13.252 14.9927 13.1256 15.1393 13.0403 15.3098C12.955 15.4804 12.9136 15.6695 12.9197 15.86C12.934 16.1228 13.0004 16.3801 13.1151 16.617L18.2381 28.3379L21.1342 22.7509L18.4335 16.9735C18.1408 16.2511 17.7371 15.5788 17.237 14.9809C16.8379 14.6478 16.3401 14.4556 15.8207 14.434C15.7865 14.4303 15.7537 14.4186 15.7249 14.4C15.696 14.3813 15.672 14.3562 15.6546 14.3265C15.6025 14.2559 15.5751 14.1701 15.5765 14.0823C15.5765 13.8479 15.6335 13.7307 15.7474 13.7307C16.253 13.7277 16.7584 13.7522 17.2614 13.804C17.7317 13.855 18.2046 13.8795 18.6777 13.8772C19.1693 13.8772 19.6902 13.8528 20.2404 13.804C20.7907 13.7551 21.349 13.7307 21.9156 13.7307C22.0458 13.7307 22.1109 13.8479 22.1109 14.0823C22.1109 14.3168 22.0702 14.434 21.9888 14.434C20.8883 14.5089 20.3381 14.8344 20.3381 15.4107C20.3882 15.8215 20.5193 16.2182 20.7239 16.5779L22.5114 20.2798L24.2842 16.8954C24.4991 16.5272 24.6261 16.1144 24.6553 15.6891C24.6553 14.9175 24.1051 14.5056 23.0046 14.4535C22.907 14.4535 22.8581 14.3363 22.8581 14.1019C22.8583 14.0166 22.8838 13.9333 22.9314 13.8626C22.9802 13.7877 23.029 13.7502 23.0779 13.7502C23.4718 13.7502 23.9602 13.7747 24.543 13.8235C25.1258 13.8723 25.5767 13.8968 25.8958 13.8968C26.1497 13.8968 26.5225 13.8756 27.0142 13.8333C27.6393 13.7747 28.1602 13.7454 28.577 13.7454C28.6746 13.7454 28.7235 13.8463 28.7235 14.0482C28.7235 14.3151 28.6339 14.4486 28.4549 14.4486C27.9007 14.4855 27.3671 14.673 26.9116 14.9907C26.3065 15.5644 25.8102 16.2427 25.4465 16.993L23.0779 21.4616L26.2816 28.1328L31.009 16.9002C31.1615 16.5415 31.2444 16.157 31.2532 15.7672C31.2532 14.9435 30.703 14.5072 29.6025 14.4584C29.5049 14.4584 29.456 14.3412 29.456 14.1068C29.456 13.8723 29.5293 13.7551 29.6758 13.7551C30.0795 13.7551 30.5565 13.7795 31.1067 13.8284C31.657 13.8772 32.0835 13.9016 32.3863 13.9016C32.8056 13.8989 33.2245 13.8745 33.6414 13.8284C34.0871 13.773 34.5353 13.7404 34.9844 13.7307C35.0983 13.7307 35.1553 13.8316 35.1553 14.0335C35.1557 14.1339 35.1231 14.2317 35.0625 14.3119C35.0402 14.3479 35.0094 14.3778 34.9727 14.3991C34.9361 14.4204 34.8949 14.4323 34.8525 14.434Z" fill="#000222"/>
</g>
</g>
</g>
<defs>
<clipPath id="clip0_1_1824">
<rect width="42" height="42" fill="white" transform="translate(0.309982 0.950073)"/>
</clipPath>
<clipPath id="clip1_1_1824">
<rect width="176" height="811" fill="white" transform="translate(0.309982 -768.05)"/>
</clipPath>
<clipPath id="clip2_1_1824">
<rect width="42" height="42" fill="white" transform="translate(0.309982 0.950073)"/>
</clipPath>
</defs>
</svg>
