<svg width="176" height="33" viewBox="0 0 176 33" fill="none" xmlns="http://www.w3.org/2000/svg">
<g clip-path="url(#clip0_1_13)">
<g clip-path="url(#clip1_1_13)">
<path d="M19.7331 9.49723L19.0424 8.10536C17.8749 5.78441 17.8995 5.6617 16.718 5.51094C16.3884 5.46186 16.2166 5.41978 16.2166 5.25851V4.52225L16.3148 4.45213H23.204L23.3863 4.50823V5.24448C23.3863 5.40576 23.2636 5.4899 23.0217 5.4899L22.5204 5.56002C21.2582 5.6652 21.4686 6.17708 22.303 7.84943L30.2686 24.1382L30.542 24.2083L37.6101 7.43923C37.8555 6.76257 37.8204 6.28225 37.5049 6.00178C37.1894 5.7213 36.9615 5.56353 36.1376 5.52847L35.4784 5.49341C35.3978 5.49341 35.3207 5.46536 35.2471 5.41277C35.2134 5.39033 35.1857 5.36015 35.1662 5.32477C35.1467 5.28938 35.1359 5.24983 35.1349 5.20943V4.50823L35.24 4.43811H43.2231L43.3038 4.50823V5.20943C43.3038 5.39875 43.1986 5.4899 42.9812 5.4899C41.9365 5.53899 41.1581 5.77038 40.6568 6.17006C40.1216 6.62497 39.7153 7.21257 39.4788 7.87397C39.4788 7.87397 32.9752 22.7498 30.7489 27.6968C29.9004 29.3165 29.066 29.1693 28.3298 27.6477C26.7731 24.4432 22.3941 14.7317 22.3941 14.7317L19.7296 9.49723H19.7331Z" fill="black"/>
<path d="M32.4914 4.44166C32.4914 4.44166 28.0037 4.42763 25.9983 4.44166L25.9002 4.51178V5.21297C25.9002 5.29361 25.9352 5.36022 26.0053 5.41281C26.0825 5.46891 26.1596 5.49696 26.2402 5.49696L26.5628 5.53202C27.3797 5.56708 27.7548 5.77743 27.867 5.91767C28.0633 6.15257 28.158 6.40851 27.6847 7.43927L19.2984 24.1628L19.081 24.1102C19.081 24.1102 13.0753 11.4431 11.3328 7.21138C11.1941 6.90536 11.1076 6.5783 11.0769 6.24373C11.0769 5.80899 11.4626 5.57759 12.2409 5.54253L13.1419 5.50747C13.3873 5.50747 13.5065 5.41281 13.5065 5.21998V4.52931L13.4259 4.45919C13.4259 4.45919 6.23163 4.44867 4.7451 4.45919L4.66797 4.52931V5.25855C4.66797 5.39178 4.83626 5.46891 5.16932 5.51098C6.08789 5.56006 6.68741 5.70381 6.9749 5.94572C7.26239 6.19114 7.57092 6.8117 7.9706 7.77935C10.1513 13.0243 14.7897 22.3817 17.0511 27.7143C17.6997 29.1693 18.5236 29.3972 19.5123 27.6687C21.2302 24.4783 25.8931 14.7422 25.8931 14.7422L29.5639 7.8705C29.9846 7.15178 30.4053 6.50317 30.6087 6.20166C30.9943 5.65122 31.2047 5.54604 32.2565 5.50046C32.4669 5.50046 32.572 5.4023 32.572 5.20947V4.51528L32.4949 4.44516L32.4914 4.44166ZM46.1437 26.1542C46.1437 26.9605 46.5118 27.4303 47.6793 27.539L48.4506 27.6091C48.5558 27.6091 48.661 27.6863 48.661 27.83V28.6013L48.6259 28.6715C48.6259 28.6715 45.8562 28.6013 44.7273 28.6013C43.7105 28.6013 40.8602 28.6715 40.8602 28.6715L40.79 28.6013V27.83C40.79 27.6898 40.8952 27.6127 41.0425 27.6127L41.7717 27.5425C42.9778 27.4303 43.3424 26.8484 43.3424 26.1542V14.013C43.3424 13.2066 42.9041 12.9892 41.7752 12.884L41.046 12.8069C40.9057 12.8069 40.7935 12.7789 40.7935 12.6667V11.8252L40.8286 11.7551C40.8286 11.7551 43.7105 11.8252 44.8394 11.8252C46.1041 11.8113 47.3686 11.7879 48.6329 11.7551L48.668 11.8252V12.6281C48.668 12.7333 48.5908 12.8034 48.4471 12.8034L47.6758 12.8805C46.5539 12.9857 46.1472 13.2802 46.1472 14.013V26.1542H46.1437ZM56.907 26.1542C56.907 26.9605 57.3838 27.3567 58.4391 27.539L58.8423 27.6091C58.9475 27.6442 59.0597 27.6863 59.0597 27.83V28.6013L59.0246 28.6715C59.0246 28.6715 56.7282 28.6013 55.6343 28.6013C54.6106 28.6013 51.6235 28.6715 51.6235 28.6715L51.5534 28.6013V27.83C51.5534 27.6898 51.6586 27.6127 51.8058 27.6127L52.5351 27.5425C53.6289 27.4303 54.1022 26.8484 54.1022 26.1542V14.013C54.1022 13.2066 53.699 12.9892 52.5351 12.884L51.8058 12.8069C51.6586 12.8069 51.5499 12.7789 51.5499 12.6667V11.8252L51.5849 11.7551C51.5849 11.7551 54.5755 11.8252 55.7045 11.8252C56.7282 11.8252 59.0246 11.7551 59.0246 11.7551L59.0597 11.8252V12.6281C59.0597 12.7333 58.9896 12.7684 58.8423 12.8034L58.4391 12.8805C57.3102 13.0979 56.9105 13.2802 56.9105 14.013V19.5174C58.1166 19.5174 58.8037 18.9003 60.4165 17.1859C61.8715 15.5801 63.0004 14.2338 63.0004 13.5397C63.0004 13.2452 62.6743 12.9191 61.9486 12.8034C61.7978 12.7684 61.7242 12.7333 61.7242 12.6281V11.7867L61.7593 11.7516C61.7593 11.7516 64.7148 11.8217 65.7736 11.8217C66.7202 11.8217 68.326 11.7516 68.326 11.7516L68.4312 11.7867V12.6281C68.4312 12.7333 68.326 12.8034 68.1437 12.8034C66.7202 12.9156 65.7351 12.9892 64.4273 14.4863L61.2895 18.0974C60.6654 18.7495 60.448 19.1492 60.448 19.4437C60.448 19.6611 60.5883 19.8434 60.7741 20.0608L66.2785 26.6976C66.7167 27.206 67.5932 27.4268 68.3225 27.5741L68.5048 27.6091C68.61 27.6442 68.7607 27.7143 68.7607 27.8265V28.5908L68.6555 28.6259C68.6555 28.6259 66.7202 28.5908 65.7 28.5908C64.7884 28.5908 63.4772 28.6259 63.4772 28.6259L63.4422 28.5908V28.1526C63.4422 27.6793 63.4071 27.2761 62.8917 26.6976L58.8458 21.663C58.2989 20.9338 57.7134 20.7515 56.9175 20.7515V26.1507L56.907 26.1542ZM76.565 26.1542C76.565 26.9605 76.9296 27.4303 78.0971 27.539L78.8684 27.6091C78.9736 27.6091 79.0788 27.6863 79.0788 27.83V28.6013L79.0437 28.6715C79.0437 28.6715 76.274 28.6013 75.1451 28.6013C74.1284 28.6013 71.278 28.6715 71.278 28.6715L71.2079 28.6013V27.83C71.2079 27.6898 71.3131 27.6127 71.4533 27.6127L72.1896 27.5425C73.3921 27.4303 73.7567 26.8484 73.7567 26.1542V14.013C73.7567 13.2066 73.3185 12.9892 72.1861 12.884L71.4498 12.8069C71.3096 12.8069 71.2044 12.7789 71.2044 12.6667V11.8252L71.2394 11.7551C71.2394 11.7551 74.1143 11.8252 75.2468 11.8252C76.5114 11.8113 77.7759 11.7879 79.0402 11.7551L79.0753 11.8252V12.6281C79.0753 12.7333 79.0052 12.8034 78.8579 12.8034L78.0866 12.8805C76.9647 12.9857 76.558 13.2802 76.558 14.013V26.1542H76.565ZM84.4465 14.0831C84.4465 12.9542 83.9696 12.9156 82.2587 12.8069C82.0414 12.8069 82.0063 12.7017 82.0063 12.6316V11.7902L82.0764 11.7551C82.6269 11.7551 84.776 11.8252 85.8348 11.8252C86.8516 11.8252 88.3135 11.7551 89.6633 11.7551C94.8382 11.7551 95.7848 14.304 95.7848 16.2077C95.7848 18.3919 94.733 21.8173 89.5547 21.8173C88.6431 21.8173 87.9174 21.7472 87.2582 21.4527V26.3365C87.2582 27.1358 87.6965 27.3182 88.864 27.5005L89.5932 27.6056C89.744 27.6477 89.8527 27.6828 89.8527 27.83V28.5943L89.8176 28.6644C89.8176 28.6644 86.9006 28.5943 85.7717 28.5943C84.755 28.5943 82.0203 28.6644 82.0203 28.6644L81.9782 28.5943V27.83C81.9782 27.6828 82.0484 27.6477 82.1991 27.6091L82.9704 27.504C84.0924 27.3532 84.4605 27.0272 84.4605 26.333V14.0796L84.4465 14.0831ZM87.2512 20.4289C87.9805 20.7234 88.892 20.7585 89.6213 20.7585C91.816 20.7585 92.8678 19.4402 92.8678 16.6354C92.8678 13.4976 91.4479 12.8069 89.4425 12.8069C87.6895 12.8069 87.2512 13.133 87.2512 14.0831V20.4289ZM102.064 28.5978C100.967 28.5978 98.4528 28.668 98.4528 28.668L98.4178 28.5978V27.7915C98.4178 27.7213 98.4528 27.6162 98.6351 27.6162L99.4766 27.539C100.606 27.4338 100.935 26.6976 100.935 25.9719V13.9393C100.935 13.0979 100.497 12.9577 99.4731 12.8876L98.6386 12.8069C98.4178 12.7789 98.4178 12.7017 98.4178 12.6667V11.8252L98.4528 11.7551C98.4528 11.7551 101.293 11.8252 102.39 11.8252H107.754C108.841 11.8252 111.435 11.7551 111.435 11.7551L111.506 11.8252C111.541 13.3924 111.8 14.8193 112.056 16.2007L111.144 16.348C110.745 14.9982 110.058 13.0664 107.719 13.0664H104.802C104.111 13.0664 103.75 13.3223 103.75 13.9429V19.2193H106.485C107.502 19.2193 107.758 18.7811 107.905 18.0519L108.122 17.2805C108.122 17.1754 108.192 17.0982 108.34 17.0982H108.957C109.027 17.0982 109.027 17.1333 109.027 17.2034C108.957 18.0098 108.816 19.0335 108.816 19.903C108.816 20.8146 108.957 21.5859 109.027 22.4273L108.957 22.4974H108.34C108.157 22.4974 108.08 22.4273 108.08 22.3151L107.898 21.5088C107.758 20.783 107.425 20.3798 106.475 20.3798H103.74V25.9613C103.74 26.652 104.14 27.3462 104.799 27.3462H108.263C110.121 27.3462 111.144 26.1822 111.583 24.2855L112.494 24.3907L111.758 28.5873L111.688 28.6574C111.688 28.6574 109.535 28.5873 108.441 28.5873H102.06L102.064 28.5978ZM115.772 27.6127L116.614 27.5425C117.708 27.4303 118.072 27.1008 118.072 25.9719V13.9393C118.072 12.9927 117.816 12.9927 116.614 12.8876L115.814 12.8069C115.667 12.8069 115.555 12.7368 115.555 12.6316V11.8252L115.59 11.7551C115.59 11.7551 118.802 11.8252 119.457 11.8252C120.151 11.8252 123.328 11.7551 124.274 11.7551C130.364 11.7551 133.355 15.5416 133.355 20.3939C133.355 26.7747 128.832 28.668 124.786 28.668C121.869 28.668 120.597 28.5978 119.464 28.5978C118.37 28.5978 115.597 28.668 115.597 28.668L115.562 28.5978V27.8335C115.555 27.7284 115.632 27.6162 115.772 27.6162V27.6127ZM123.906 27.6127C127.917 27.6127 130.182 26.1191 130.182 21.0144C130.182 17.2209 129.34 12.8104 123.216 12.8104C121.792 12.8104 120.881 13.0278 120.881 13.9393V25.9719C120.881 26.9886 121.133 27.6127 123.906 27.6127ZM141.962 26.1542C141.962 26.9605 142.323 27.4303 143.491 27.539L144.262 27.6091C144.367 27.6091 144.472 27.6863 144.472 27.83V28.6013L144.437 28.6715C144.437 28.6715 141.667 28.6013 140.539 28.6013C139.522 28.6013 136.675 28.6715 136.675 28.6715L136.605 28.6013V27.83C136.605 27.6898 136.71 27.6127 136.85 27.6127L137.587 27.5425C138.789 27.4303 139.154 26.8484 139.154 26.1542V14.013C139.154 13.2066 138.712 12.9892 137.583 12.884L136.847 12.8069C136.707 12.8069 136.601 12.7789 136.601 12.6667V11.8252L136.636 11.7551C136.636 11.7551 139.511 11.8252 140.64 11.8252C141.905 11.8113 143.169 11.7879 144.434 11.7551L144.469 11.8252V12.6281C144.469 12.7333 144.399 12.8034 144.251 12.8034L143.48 12.8805C142.358 12.9857 141.955 13.2802 141.955 14.013V26.1542H141.962ZM153.192 27.539L154.25 27.6091C154.398 27.6091 154.541 27.7248 154.541 27.9036V28.5978L154.471 28.668C154.471 28.668 150.496 28.5978 149.619 28.5978C148.672 28.5978 146.337 28.668 146.337 28.668L146.267 28.5978V27.9036C146.267 27.7284 146.373 27.6127 146.555 27.6127C148.161 27.5075 149.069 27.213 150.096 24.878L158.184 5.91767C158.584 4.97106 158.878 4.60293 159.425 4.60293C159.937 4.60293 160.126 4.97106 160.407 5.7003L167.885 25.4635C168.397 26.8869 169.126 27.4338 170.585 27.5776L170.988 27.6127C171.17 27.6127 171.353 27.7178 171.353 27.9072V28.5978L171.247 28.668C171.247 28.668 168.436 28.5978 167.012 28.5978C165.736 28.5978 162.163 28.668 162.163 28.668L162.128 28.5978V27.9072C162.128 27.7213 162.198 27.6127 162.388 27.6127L163.405 27.5425C164.793 27.4374 165.308 26.9921 164.94 25.9719L162.717 19.8084H155.134C154.257 19.8084 154.04 19.9556 153.858 20.4289L151.744 25.7159C151.379 26.6275 151.856 27.4338 153.202 27.539H153.192ZM162.121 18.2727L158.591 8.54014H158.521L154.875 17.8029C154.724 18.1676 154.98 18.2762 155.779 18.2762H162.125L162.121 18.2727Z" fill="black"/>
</g>
</g>
<defs>
<clipPath id="clip0_1_13">
<rect width="176" height="32" fill="white" transform="translate(0.00500488 0.659973)"/>
</clipPath>
<clipPath id="clip1_1_13">
<rect width="176" height="811" fill="white" transform="translate(0.00500488 -303.34)"/>
</clipPath>
</defs>
</svg>
